<?xml version="1.0" standalone="no"?>
<!DOCTYPE svg PUBLIC "-//W3C//DTD SVG 20010904//EN"
 "http://www.w3.org/TR/2001/REC-SVG-20010904/DTD/svg10.dtd">
<svg version="1.0" xmlns="http://www.w3.org/2000/svg"
 width="1600.000000pt" height="1024.000000pt" viewBox="0 0 1600.000000 1024.000000"
 preserveAspectRatio="xMidYMid meet">

<g transform="translate(0.000000,1024.000000) scale(0.100000,-0.100000)"
fill="#000000" stroke="none">
<path d="M4134 9996 c-97 -24 -246 -115 -309 -188 -50 -58 -71 -102 -86 -179
-19 -102 -46 -175 -84 -225 -46 -60 -48 -87 -13 -192 15 -47 33 -76 72 -116
57 -60 79 -86 72 -86 -3 0 1 -15 9 -32 19 -48 14 -252 -8 -294 -21 -41 -119
-105 -312 -203 -162 -83 -187 -92 -355 -131 -228 -53 -387 -188 -470 -400 -39
-98 -41 -177 -14 -390 16 -120 24 -222 21 -265 -11 -161 -105 -507 -174 -635
-121 -226 -143 -271 -172 -357 -42 -128 -61 -212 -72 -323 -18 -189 -22 -215
-30 -231 -4 -8 -11 -40 -14 -70 -19 -163 -87 -437 -123 -494 -28 -44 -45 -60
-122 -114 -69 -49 -152 -130 -207 -201 -23 -30 -65 -84 -93 -119 -65 -83 -76
-123 -55 -191 10 -33 73 -80 106 -80 18 0 39 -9 54 -24 23 -23 23 -26 18 -157
-6 -141 3 -200 34 -234 10 -11 26 -33 36 -48 25 -39 67 -62 148 -82 85 -20
115 -12 204 51 59 42 170 158 194 202 7 12 23 57 37 100 14 42 47 122 74 177
27 55 58 124 69 153 27 68 51 206 51 291 0 95 20 160 91 291 55 102 179 354
179 364 0 2 53 114 119 248 143 292 166 360 185 538 16 143 27 193 51 225 14
18 16 18 33 2 15 -16 16 -34 13 -155 -7 -210 -6 -349 3 -439 9 -82 9 -85 -39
-348 -48 -260 -69 -463 -70 -655 -1 -425 26 -964 56 -1110 20 -98 48 -261 64
-375 9 -66 24 -145 32 -175 23 -88 28 -401 9 -538 -23 -162 -21 -473 4 -672
41 -323 53 -408 70 -485 5 -22 16 -83 25 -135 9 -52 23 -130 31 -173 8 -44 17
-175 20 -295 9 -330 -6 -377 -172 -546 -100 -102 -118 -130 -129 -209 -6 -39
-3 -56 19 -100 25 -52 43 -69 140 -134 l48 -33 202 0 203 0 34 35 c36 36 59
80 184 340 70 145 77 167 82 235 3 49 -1 97 -10 138 -15 63 -19 169 -19 622
-1 217 -3 202 61 437 65 239 85 481 56 684 -28 187 -25 274 14 387 41 121 53
207 52 372 0 160 26 345 49 345 22 0 30 -55 34 -240 4 -176 14 -242 67 -463
28 -114 29 -133 24 -255 -3 -73 -10 -184 -16 -247 -16 -165 12 -379 86 -650
56 -203 64 -261 61 -435 -2 -93 -8 -159 -19 -198 -11 -38 -17 -96 -17 -169 0
-62 -5 -149 -12 -194 -17 -118 -2 -189 71 -339 32 -66 81 -167 109 -225 29
-58 66 -122 83 -142 l30 -38 200 0 c179 0 204 2 242 20 105 50 177 141 177
224 0 77 -33 133 -145 248 -126 130 -140 162 -156 356 -17 209 -7 319 56 652
21 111 44 241 55 310 48 320 47 301 44 675 -2 198 -8 407 -15 465 -15 140 -8
216 55 555 9 44 25 139 36 210 11 72 30 184 41 250 12 66 23 165 25 220 2 55
9 156 15 225 11 127 8 787 -5 865 -3 22 -11 74 -17 115 -6 41 -17 104 -25 140
-7 36 -18 104 -24 152 -6 48 -15 109 -20 135 -22 101 -22 123 -5 200 20 89 16
210 -9 328 -28 127 -16 235 25 235 28 0 38 -30 54 -157 29 -227 63 -332 195
-593 54 -107 110 -224 125 -260 43 -103 84 -186 153 -315 104 -192 118 -238
137 -450 12 -126 35 -206 97 -330 33 -66 73 -157 89 -203 15 -46 34 -91 41
-100 97 -125 217 -227 287 -243 47 -11 171 15 207 44 15 11 43 45 63 76 l36
56 5 168 c5 162 6 170 29 188 13 10 34 19 48 19 91 0 151 116 107 203 -42 80
-244 299 -350 379 -100 75 -137 123 -168 215 -29 87 -87 381 -101 513 -35 327
-92 546 -191 725 -112 206 -144 280 -199 476 -38 133 -60 234 -70 319 -9 69
-20 156 -25 193 -6 37 -15 143 -20 235 -14 250 -48 341 -170 462 -97 97 -162
130 -335 174 -111 28 -169 50 -280 105 -177 88 -273 153 -302 206 -18 34 -22
58 -24 155 -4 153 16 224 82 290 87 87 108 218 46 287 -39 44 -53 80 -72 185
-18 99 -54 169 -121 232 -61 58 -165 124 -239 151 -65 23 -287 30 -361 11z
m329 -43 c46 -13 183 -95 239 -142 22 -19 56 -59 75 -89 33 -52 35 -57 35
-155 1 -107 12 -137 49 -137 10 0 25 -13 34 -30 30 -57 13 -146 -37 -200 -12
-13 -31 -40 -41 -59 -11 -19 -29 -43 -42 -53 -25 -19 -30 -50 -41 -249 -9
-150 7 -202 78 -257 69 -52 151 -103 212 -131 26 -12 46 -25 42 -28 -3 -3 -12
0 -20 7 -9 6 -21 10 -28 7 -8 -4 -5 -8 10 -12 12 -4 22 -11 22 -16 0 -5 9 -9
21 -9 11 0 17 5 14 10 -8 12 0 13 23 1 9 -5 51 -25 92 -45 49 -23 64 -33 43
-29 -39 7 -44 -9 -8 -25 31 -14 65 -15 85 -2 12 7 8 10 -14 10 -16 0 -26 3
-23 7 6 5 64 -4 152 -26 20 -5 30 -13 29 -24 -1 -12 6 -17 25 -16 23 0 24 1 6
9 -19 8 -19 9 2 9 11 1 38 -8 60 -20 48 -25 163 -118 177 -143 6 -10 21 -30
34 -44 12 -14 22 -32 22 -41 0 -9 7 -29 15 -45 8 -15 15 -36 14 -45 0 -12 -2
-12 -9 4 -6 15 -9 8 -9 -28 -1 -30 3 -46 9 -42 6 3 10 14 10 23 1 9 7 2 15
-17 10 -22 15 -68 15 -140 0 -150 29 -510 45 -546 28 -65 45 -136 25 -105 -7
11 -10 5 -10 -24 0 -31 3 -37 12 -28 9 9 15 5 25 -19 7 -17 13 -45 13 -61 0
-17 6 -42 14 -56 18 -37 36 -90 45 -133 11 -53 97 -221 123 -239 4 -3 17 -26
28 -50 11 -25 24 -52 29 -60 26 -46 61 -145 61 -174 0 -9 6 -27 12 -39 24 -43
40 -113 48 -217 7 -90 23 -212 45 -350 4 -26 3 -30 -4 -15 -7 15 -10 8 -10
-32 -1 -29 4 -53 9 -53 6 0 10 12 11 28 1 53 29 -60 29 -118 0 -31 4 -60 9
-65 6 -6 14 -28 20 -50 27 -106 34 -131 42 -147 5 -10 9 -24 9 -31 0 -8 9 -24
20 -37 11 -13 17 -26 14 -29 -4 -3 -9 0 -11 7 -3 6 -9 12 -14 12 -4 0 -6 -7
-2 -16 4 -11 13 -14 29 -10 13 4 24 3 24 -1 0 -5 12 -16 28 -25 16 -11 21 -18
11 -18 -8 0 -21 6 -28 13 -10 10 -11 9 -6 -5 4 -10 10 -18 14 -19 3 0 17 -2
31 -3 36 -2 151 -83 144 -100 -3 -8 -1 -17 5 -21 6 -3 11 1 11 11 0 15 3 15
18 -5 9 -12 29 -36 44 -54 15 -18 28 -37 28 -43 0 -7 17 -27 38 -46 21 -19 48
-50 59 -69 12 -19 30 -43 41 -54 10 -11 26 -32 36 -47 16 -25 16 -27 -1 -47
-33 -39 -96 -26 -184 36 -68 48 -72 46 -65 -44 14 -185 17 -308 7 -293 -8 11
-11 5 -11 -27 0 -48 6 -54 21 -20 9 21 9 21 4 -3 -2 -14 -5 -48 -5 -77 0 -50
-1 -52 -43 -72 -24 -12 -53 -34 -65 -51 -24 -32 -67 -41 -90 -18 -6 6 -31 13
-54 14 -35 2 -48 8 -71 36 -15 18 -30 43 -33 55 -4 13 -20 27 -43 36 -44 18
-61 37 -78 86 -15 43 -16 62 -3 41 7 -11 10 -6 10 20 -1 31 -2 33 -14 18 -11
-15 -14 -13 -25 18 -7 20 -10 38 -7 41 3 4 6 -2 6 -12 0 -14 3 -16 11 -8 7 7
9 23 5 39 -6 22 -9 25 -17 13 -8 -12 -12 -11 -24 5 -8 11 -15 28 -15 38 0 11
-9 29 -21 41 -28 29 -59 91 -59 117 0 11 -4 20 -10 20 -5 0 -13 12 -16 27 -4
15 -13 38 -20 52 -10 18 -14 71 -14 179 0 84 -4 160 -9 170 -5 9 -18 37 -30
62 -12 25 -26 52 -30 60 -5 8 -22 42 -39 75 -16 33 -44 85 -61 115 -17 30 -41
75 -52 100 -11 25 -34 72 -50 105 -16 33 -29 65 -29 72 0 6 -18 46 -40 88 -22
42 -40 81 -40 87 0 6 -12 29 -28 52 -51 76 -131 250 -132 286 0 8 -7 29 -16
45 -24 46 -35 110 -41 230 -3 61 -8 115 -13 120 -4 6 -11 26 -14 45 -4 19 -13
49 -21 65 -7 17 -21 57 -30 90 -8 33 -20 75 -26 93 -6 19 -8 36 -5 39 3 4 6
-2 6 -13 1 -17 2 -17 10 -2 6 10 7 25 1 40 -8 20 -10 21 -16 6 -6 -15 -9 -16
-22 -3 -21 22 -33 9 -33 -35 0 -21 -6 -51 -14 -67 -15 -29 -30 -83 -48 -168
-14 -67 -13 -210 3 -320 25 -176 6 -384 -31 -325 -5 9 -18 1 -44 -26 -19 -22
-36 -42 -36 -46 0 -11 18 -10 25 2 3 6 15 10 26 10 11 0 23 10 28 23 8 20 9
19 20 -18 6 -22 11 -51 11 -65 0 -14 7 -50 15 -80 8 -30 15 -74 15 -98 0 -24
5 -53 12 -65 12 -23 22 -93 38 -257 5 -58 15 -121 21 -141 17 -54 -2 -970 -20
-929 -1 3 -4 23 -7 45 -9 61 -14 55 -14 -16 0 -47 3 -60 11 -49 21 32 -6 -362
-28 -405 -6 -11 -13 -51 -16 -89 -4 -38 -11 -74 -17 -80 -5 -5 -10 -43 -10
-82 0 -40 -4 -76 -10 -79 -5 -3 -10 -25 -10 -48 -1 -23 -7 -60 -15 -82 -8 -22
-15 -53 -15 -70 0 -16 -7 -55 -15 -85 -19 -70 -19 -214 0 -395 16 -157 19
-578 4 -720 -5 -49 -12 -128 -15 -175 -6 -87 -33 -195 -34 -137 0 15 -4 27
-10 27 -6 0 -10 -25 -9 -57 1 -46 3 -53 10 -33 7 21 8 20 4 -10 -6 -52 -22
-117 -25 -100 -1 8 -2 18 -1 23 0 4 -3 7 -9 7 -5 0 -10 -19 -9 -42 0 -35 2
-39 10 -23 6 15 8 8 4 -25 -10 -102 -24 -190 -34 -209 -6 -11 -11 -36 -11 -55
0 -19 -7 -57 -16 -83 -14 -41 -15 -81 -10 -278 6 -244 11 -271 67 -389 7 -15
60 -73 118 -127 57 -54 112 -112 122 -129 24 -38 24 -102 2 -138 -23 -35 -33
-42 -63 -42 -14 0 -34 -7 -44 -15 -11 -8 -27 -15 -37 -15 -9 0 -30 -7 -45 -15
-21 -12 -44 -14 -85 -9 -37 3 -59 2 -63 -5 -10 -15 -103 -13 -151 3 -46 16
-88 62 -116 126 -11 25 -24 53 -29 62 -6 10 -10 23 -10 30 0 16 -81 180 -100
203 -7 9 -9 15 -3 13 11 -3 13 1 13 23 0 8 -4 8 -14 0 -12 -10 -17 -8 -27 10
-9 17 -10 54 -3 144 5 66 9 170 9 230 0 61 2 124 3 140 l3 30 13 -24 14 -24 7
22 c4 12 4 34 -1 49 l-7 27 -7 -25 c-5 -14 -8 -18 -9 -9 -1 9 6 30 14 45 10
20 15 23 15 12 0 -10 5 -18 10 -18 6 0 10 73 10 200 0 140 -3 200 -11 200 -7
0 -10 -14 -7 -35 2 -19 1 -35 -2 -35 -9 0 -32 116 -27 136 3 11 5 5 6 -14 0
-18 5 -31 9 -28 7 4 8 38 2 101 -1 17 -4 15 -14 -9 -13 -28 -13 -27 -25 35 -7
35 -16 71 -21 80 -5 9 -12 34 -16 55 -3 22 -10 46 -15 55 -21 40 -50 273 -50
399 0 36 5 153 11 260 12 211 7 325 -14 349 -7 9 -16 28 -20 44 -3 15 -9 39
-12 53 -5 19 -3 25 5 20 8 -5 11 7 11 38 0 59 -19 72 -22 14 -3 -101 -19 106
-23 312 -3 141 -10 243 -21 296 -8 44 -14 93 -11 110 3 19 5 13 6 -21 1 -36 4
-46 11 -35 11 17 11 84 0 120 l-7 25 -8 -30 -8 -30 -10 30 c-6 17 -13 118 -18
225 -11 286 -31 560 -39 560 -19 0 -29 -115 -35 -380 -4 -156 -10 -289 -13
-295 -10 -14 -30 -151 -42 -275 -5 -58 -14 -121 -20 -140 -5 -19 -10 -120 -10
-224 0 -130 -4 -207 -14 -245 -8 -31 -20 -81 -26 -111 -7 -30 -19 -69 -27 -86
-11 -26 -13 -67 -9 -205 2 -96 7 -194 11 -219 4 -33 3 -41 -4 -30 -8 11 -11
-28 -11 -134 0 -82 3 -146 8 -142 4 4 10 65 13 134 l5 127 2 -110 c1 -60 -3
-130 -9 -155 -6 -25 -14 -70 -18 -101 -5 -30 -13 -65 -20 -77 -6 -11 -11 -36
-11 -55 0 -19 -6 -49 -14 -67 -12 -30 -14 -31 -24 -14 -10 16 -11 11 -11 -26
0 -34 2 -40 9 -25 8 19 9 19 9 -2 1 -12 -4 -25 -9 -28 -6 -3 -10 -13 -10 -22
0 -8 -6 -29 -14 -46 -17 -38 -36 -407 -24 -477 4 -25 7 -129 7 -232 1 -105 5
-189 10 -193 6 -3 13 -27 16 -53 3 -26 10 -55 16 -64 15 -29 10 -68 -13 -101
-12 -17 -30 -45 -39 -61 -9 -17 -28 -53 -43 -79 -14 -26 -26 -53 -26 -59 0 -5
-6 -24 -14 -41 -8 -18 -17 -39 -20 -47 -3 -8 -10 -22 -14 -30 -5 -8 -18 -33
-28 -55 -23 -48 -57 -82 -103 -101 -40 -17 -137 -19 -147 -3 -4 7 -26 8 -65 4
-44 -5 -66 -3 -90 9 -18 9 -38 16 -45 16 -12 0 -49 14 -113 44 -13 6 -33 30
-43 54 -18 40 -18 44 -2 80 17 35 121 151 136 152 4 0 5 -8 1 -17 -3 -10 -3
-15 1 -11 4 3 9 13 10 21 1 9 23 38 48 65 58 62 93 117 102 162 24 111 27 612
5 626 -5 3 -9 37 -9 75 0 39 -7 85 -15 106 -8 19 -15 51 -15 70 0 18 -7 50
-15 70 -8 19 -15 53 -15 75 0 22 -5 48 -10 59 -6 10 -15 63 -20 117 -5 53 -13
122 -18 152 -26 147 -34 285 -29 520 3 135 10 274 15 310 l9 65 1 -62 c1 -35
7 -63 12 -63 6 0 9 42 9 108 -1 74 -4 95 -9 67 -3 -22 -6 26 -6 108 1 81 4
138 8 125 3 -14 6 2 7 40 1 35 -3 62 -9 62 -5 0 -11 -17 -11 -37 l-1 -38 -10
40 c-5 22 -13 72 -18 110 -4 39 -13 88 -19 110 -6 22 -11 59 -11 83 0 24 -5
53 -12 65 -10 20 -23 92 -33 192 -3 35 -3 36 4 10 7 -25 9 -19 9 30 0 46 -2
53 -8 30 -4 -19 -9 -25 -12 -15 -10 29 -28 161 -28 208 0 26 -5 63 -11 82 -9
28 -20 336 -31 890 -1 51 15 217 27 280 8 41 22 120 32 175 16 91 18 97 24 60
5 -32 6 -26 7 30 0 52 -2 64 -9 45 -6 -19 -7 -16 -3 15 15 126 24 176 33 194
17 30 13 162 -4 185 -19 25 -21 230 -4 273 14 34 38 230 37 298 l-1 50 -7 -60
c-6 -51 -7 -54 -8 -19 -1 23 -9 55 -17 70 -8 16 -15 38 -15 49 0 12 -4 25 -9
30 -9 9 -28 97 -37 170 l-3 30 8 -30 c7 -25 9 -22 8 25 0 30 -2 45 -4 32 -4
-18 -7 -21 -18 -12 -19 16 -45 -36 -45 -88 0 -21 -7 -47 -15 -58 -8 -10 -15
-29 -15 -42 0 -13 -5 -33 -12 -45 -6 -12 -15 -40 -19 -62 -4 -22 -15 -67 -24
-100 -9 -33 -21 -109 -25 -169 -5 -60 -14 -114 -19 -119 -6 -6 -11 -30 -11
-53 0 -24 -4 -45 -9 -49 -5 -3 -12 -19 -16 -35 -4 -17 -11 -30 -16 -30 -5 0
-9 -7 -9 -16 0 -9 -6 -30 -14 -47 -8 -18 -17 -39 -20 -47 -3 -8 -15 -28 -26
-45 -11 -16 -22 -37 -26 -45 -3 -8 -10 -23 -15 -32 -31 -58 -69 -138 -80 -168
-14 -39 -49 -89 -49 -71 0 6 -4 11 -10 11 -5 0 -10 -9 -10 -21 0 -11 5 -17 10
-14 12 8 13 -9 1 -33 -5 -9 -31 -62 -57 -117 -27 -55 -51 -102 -54 -105 -4 -4
-43 -79 -104 -200 -41 -81 -46 -101 -56 -245 -12 -178 -19 -233 -31 -241 -5
-3 -9 -12 -9 -20 0 -17 -31 -84 -60 -129 -18 -28 -51 -95 -69 -140 -4 -11 -15
-50 -24 -88 -20 -80 -45 -118 -97 -141 -25 -11 -42 -27 -51 -49 -12 -30 -51
-76 -67 -78 -4 -1 -23 -3 -42 -5 -19 -2 -39 -9 -44 -14 -21 -21 -64 -11 -93
23 -15 19 -42 39 -60 46 -53 21 -63 48 -62 158 0 54 5 121 10 148 5 28 13 93
18 146 5 53 11 101 15 108 12 19 -29 12 -51 -9 -14 -13 -23 -15 -25 -8 -3 8
-14 5 -33 -10 -15 -12 -22 -22 -14 -22 8 0 5 -6 -7 -15 -28 -21 -121 -20 -132
3 -12 22 -6 40 29 80 16 18 29 37 29 42 0 5 29 39 65 77 36 37 65 73 65 78 0
6 5 3 10 -5 8 -12 10 -10 8 8 -4 29 63 109 119 145 24 14 43 22 43 17 0 -6 4
-10 9 -10 5 0 8 8 7 18 -1 12 5 16 24 14 17 -1 21 1 12 6 -10 7 -6 15 18 36
31 25 42 30 68 27 6 -1 12 3 12 9 0 6 -4 8 -10 5 -16 -10 -11 5 13 38 23 33
41 87 57 167 5 25 13 63 18 85 10 40 10 40 11 8 2 -52 21 -38 21 15 0 34 -3
43 -10 32 -8 -13 -10 -12 -10 3 0 9 4 25 9 35 13 22 32 125 41 222 8 76 26
156 30 133 1 -7 4 -17 5 -23 1 -5 4 -16 5 -22 7 -40 19 67 13 117 l-8 60 -6
-55 c-6 -54 -6 -54 -3 10 4 109 44 324 63 343 6 6 11 21 11 33 0 12 7 27 15
34 8 7 15 23 15 35 0 13 7 36 15 51 10 20 15 23 15 12 0 -10 5 -18 10 -18 6 0
10 7 10 15 0 22 -4 30 -13 27 -4 -1 4 16 18 38 14 22 25 42 25 46 0 3 13 23
28 43 26 34 35 51 69 131 8 19 21 48 29 63 8 16 14 41 14 55 1 40 28 134 29
100 1 -41 21 -34 21 8 0 21 -4 33 -10 29 -5 -3 -10 1 -10 9 0 8 4 17 9 20 5 3
12 26 15 51 4 25 11 45 17 45 5 0 9 21 9 48 0 26 6 66 13 90 13 42 14 43 24
20 9 -18 12 0 11 92 0 67 -3 103 -7 85 -4 -16 -7 -55 -5 -85 1 -30 0 -41 -3
-25 -2 17 -8 55 -14 85 -6 30 -15 98 -19 150 -5 52 -12 128 -16 169 -4 45 -2
101 5 145 14 79 31 128 38 109 8 -23 23 -14 23 15 0 21 -2 24 -10 12 -5 -8
-10 -10 -10 -4 0 6 7 17 15 24 10 9 15 9 15 1 0 -6 5 -11 10 -11 6 0 10 7 10
15 0 8 -5 15 -11 15 -6 0 1 17 17 38 59 78 152 151 218 171 20 6 51 16 69 21
18 6 47 10 63 10 17 0 36 6 43 13 11 10 14 10 18 0 6 -15 49 -17 58 -3 4 6 -6
10 -22 11 -20 0 -13 5 27 16 30 8 125 49 210 91 185 92 175 87 165 73 -4 -7
-17 -16 -29 -21 l-21 -9 23 0 c12 -1 22 4 22 9 0 6 9 10 20 10 11 0 20 4 20 8
0 5 10 14 23 20 14 7 17 11 6 11 -8 1 -20 -4 -27 -11 -6 -6 -14 -10 -16 -7 -3
3 31 29 76 59 107 71 118 84 120 139 l1 46 4 -43 c3 -25 -1 -50 -8 -58 -9 -11
-8 -19 6 -34 11 -12 21 -16 25 -11 3 6 5 90 4 188 -1 149 1 180 14 189 14 10
13 14 -1 35 -10 13 -17 33 -17 44 0 12 -5 26 -12 33 -7 7 -11 36 -10 69 1 32
-5 92 -13 133 -72 384 -41 464 234 607 63 32 66 33 195 33 72 0 145 -4 163 -9
26 -8 85 -40 188 -104 36 -22 105 -101 111 -127 3 -14 10 -35 15 -48 12 -29
12 -86 -1 -170 -28 -201 -39 -292 -38 -338 0 -34 -8 -68 -26 -106 -14 -30 -26
-58 -26 -61 0 -14 18 -6 44 18 18 17 26 34 26 58 0 18 6 39 12 45 10 10 10 17
0 32 -10 17 -9 27 8 60 12 24 20 59 20 92 0 59 25 134 47 142 8 3 24 1 35 -5
16 -9 19 -8 16 3 -3 7 -13 15 -24 17 -45 8 -53 28 -53 134 0 99 -9 135 -46
185 -28 38 -84 87 -147 128 -66 43 -94 56 -179 83 -42 13 -228 15 -261 2 -13
-5 -41 -14 -62 -21 -54 -17 -177 -94 -223 -140 -83 -81 -94 -111 -96 -252 l-2
-113 -25 -1 c-53 -2 -61 -4 -55 -14 3 -5 21 -10 39 -10 31 0 35 -3 50 -49 9
-28 16 -71 16 -98 1 -27 9 -63 19 -83 15 -27 16 -39 8 -57 -8 -17 -7 -27 1
-35 7 -7 12 -21 12 -33 0 -11 6 -32 14 -46 9 -18 11 -49 7 -110 l-6 -84 -6 80
c-14 166 -16 171 -86 244 -36 36 -72 79 -81 96 -19 37 -23 178 -5 196 6 6 29
12 51 13 l39 1 -1 115 c0 114 0 115 34 170 42 66 52 76 160 148 131 87 179
101 330 98 69 -1 142 -7 163 -13z m-596 -1175 c-3 -8 -6 -5 -6 6 -1 11 2 17 5
13 3 -3 4 -12 1 -19z m-2077 -4202 c0 -3 -4 -8 -10 -11 -5 -3 -10 -1 -10 4 0
6 5 11 10 11 6 0 10 -2 10 -4z m2857 -3328 c-2 -35 -3 -7 -3 62 0 69 1 97 3
63 2 -35 2 -91 0 -125z"/>
<path d="M3958 9484 c-43 -23 -35 -38 15 -30 56 10 60 10 150 1 82 -8 97 0 55
29 -30 21 -182 21 -220 0z"/>
<path d="M4411 9487 c-48 -24 -22 -32 109 -32 72 0 130 2 130 5 0 3 -14 13
-31 23 -37 20 -171 24 -208 4z"/>
<path d="M4035 9400 c-10 -16 23 -60 45 -60 22 0 55 44 45 60 -3 5 -24 10 -45
10 -21 0 -42 -5 -45 -10z"/>
<path d="M4449 9394 c-11 -14 -9 -19 11 -35 46 -35 79 -19 80 39 0 18 -75 15
-91 -4z"/>
<path d="M3683 9333 c1 -25 7 -48 13 -50 17 -6 26 55 11 77 -19 31 -26 24 -24
-27z"/>
<path d="M4864 9345 c-6 -15 2 -35 15 -35 5 0 11 9 14 19 6 23 -21 38 -29 16z"/>
<path d="M4852 9241 c-24 -34 -27 -41 -12 -41 6 0 10 5 10 11 0 7 7 17 16 24
9 6 15 17 13 24 -3 7 -14 0 -27 -18z"/>
<path d="M3710 9223 c0 -13 5 -23 10 -23 13 0 13 11 0 30 -8 12 -10 11 -10 -7z"/>
<path d="M3735 9180 c3 -5 10 -10 16 -10 5 0 9 5 9 10 0 6 -7 10 -16 10 -8 0
-12 -4 -9 -10z"/>
<path d="M4811 9174 c0 -11 3 -14 6 -6 3 7 2 16 -1 19 -3 4 -6 -2 -5 -13z"/>
<path d="M3766 9145 c4 -8 8 -15 10 -15 2 0 4 7 4 15 0 8 -4 15 -10 15 -5 0
-7 -7 -4 -15z"/>
<path d="M4332 9145 c-11 -13 -7 -15 25 -15 34 0 36 1 17 15 -24 18 -26 18
-42 0z"/>
<path d="M4225 9141 c-3 -5 -1 -12 4 -15 13 -8 42 4 35 15 -7 12 -31 12 -39 0z"/>
<path d="M4780 9124 c0 -8 5 -12 10 -9 6 3 10 10 10 16 0 5 -4 9 -10 9 -5 0
-10 -7 -10 -16z"/>
<path d="M3790 9120 c0 -5 5 -10 11 -10 5 0 7 5 4 10 -3 6 -8 10 -11 10 -2 0
-4 -4 -4 -10z"/>
<path d="M4285 8970 c4 -6 11 -8 16 -5 14 9 11 15 -7 15 -8 0 -12 -5 -9 -10z"/>
<path d="M3930 8935 c0 -11 11 -32 25 -47 14 -15 25 -30 25 -33 0 -11 105
-105 117 -105 7 0 13 -4 13 -9 0 -38 260 -58 331 -26 61 28 101 56 133 92 17
20 39 43 49 52 9 8 17 21 17 28 0 7 5 13 10 13 6 0 10 10 10 22 0 20 -4 18
-32 -17 -44 -54 -123 -135 -132 -135 -3 0 -24 -11 -46 -25 -37 -23 -49 -25
-160 -25 -66 0 -120 4 -120 8 0 5 -17 16 -39 25 -39 18 -106 78 -151 137 -54
71 -49 67 -50 45z"/>
<path d="M4307 8919 c8 -8 16 -8 30 0 16 9 14 10 -11 11 -22 0 -27 -3 -19 -11z"/>
<path d="M4700 8796 c0 -64 4 -106 10 -106 6 0 10 40 10 99 0 56 -4 103 -10
106 -6 4 -10 -32 -10 -99z"/>
<path d="M4726 8653 c-3 -4 -6 -17 -6 -29 0 -17 7 -25 25 -30 14 -4 27 -5 29
-3 6 7 -41 68 -48 62z"/>
<path d="M3820 8590 c0 -5 -5 -10 -10 -10 -6 0 -20 -9 -32 -20 -34 -32 -6 -23
32 10 19 16 29 29 23 30 -7 0 -13 -4 -13 -10z"/>
<path d="M4810 8557 c0 -9 7 -17 15 -17 8 0 15 -3 15 -8 0 -10 60 -36 67 -28
4 3 -1 6 -10 6 -9 0 -17 5 -17 10 0 6 -5 10 -12 10 -6 0 -22 10 -35 22 -20 18
-23 19 -23 5z"/>
<path d="M4480 8550 c0 -5 5 -10 11 -10 5 0 7 5 4 10 -3 6 -8 10 -11 10 -2 0
-4 -4 -4 -10z"/>
<path d="M3730 8530 c-12 -8 -10 -10 8 -10 13 0 20 4 17 10 -7 12 -6 12 -25 0z"/>
<path d="M4920 8480 c0 -5 7 -10 16 -10 8 0 12 5 9 10 -3 6 -10 10 -16 10 -5
0 -9 -4 -9 -10z"/>
<path d="M4968 8453 c6 -2 18 -2 25 0 6 3 1 5 -13 5 -14 0 -19 -2 -12 -5z"/>
<path d="M3550 8430 c0 -13 11 -13 30 0 12 8 11 10 -7 10 -13 0 -23 -4 -23
-10z"/>
<path d="M3515 8410 c-3 -5 1 -10 9 -10 9 0 16 5 16 10 0 6 -4 10 -9 10 -6 0
-13 -4 -16 -10z"/>
<path d="M3458 8383 c6 -2 18 -2 25 0 6 3 1 5 -13 5 -14 0 -19 -2 -12 -5z"/>
<path d="M5113 8383 c9 -2 23 -2 30 0 6 3 -1 5 -18 5 -16 0 -22 -2 -12 -5z"/>
<path d="M3410 8360 c0 -5 4 -10 9 -10 6 0 13 5 16 10 3 6 -1 10 -9 10 -9 0
-16 -4 -16 -10z"/>
<path d="M5165 8360 c3 -5 13 -10 21 -10 8 0 12 5 9 10 -3 6 -13 10 -21 10 -8
0 -12 -4 -9 -10z"/>
<path d="M3332 8326 c-46 -13 -46 -26 0 -26 33 0 68 16 68 30 0 12 -11 11 -68
-4z"/>
<path d="M3478 8313 c7 -3 16 -2 19 1 4 3 -2 6 -13 5 -11 0 -14 -3 -6 -6z"/>
<path d="M3603 8313 c32 -2 81 -2 110 0 29 2 3 3 -58 3 -60 0 -84 -1 -52 -3z"/>
<path d="M4848 8313 c7 -3 16 -2 19 1 4 3 -2 6 -13 5 -11 0 -14 -3 -6 -6z"/>
<path d="M4953 8313 c32 -2 81 -2 110 0 29 2 3 3 -58 3 -60 0 -84 -1 -52 -3z"/>
<path d="M5355 8290 c3 -5 24 -10 46 -10 24 0 38 4 34 10 -3 6 -24 10 -46 10
-24 0 -38 -4 -34 -10z"/>
<path d="M3133 8263 c9 -2 25 -2 35 0 9 3 1 5 -18 5 -19 0 -27 -2 -17 -5z"/>
<path d="M3033 8243 c9 -2 23 -2 30 0 6 3 -1 5 -18 5 -16 0 -22 -2 -12 -5z"/>
<path d="M5560 8230 c28 -22 40 -25 40 -10 0 6 -7 10 -15 10 -8 0 -15 5 -15
10 0 6 -8 10 -17 10 -15 0 -13 -4 7 -20z"/>
<path d="M2970 8220 c0 -5 6 -10 14 -10 8 0 18 5 21 10 3 6 -3 10 -14 10 -12
0 -21 -4 -21 -10z"/>
<path d="M5610 8200 c0 -5 5 -10 11 -10 5 0 7 5 4 10 -3 6 -8 10 -11 10 -2 0
-4 -4 -4 -10z"/>
<path d="M2914 8185 c-17 -13 -17 -14 -1 -15 9 0 17 4 17 9 0 5 8 12 18 14 13
4 14 5 1 6 -8 0 -24 -6 -35 -14z"/>
<path d="M5668 8150 c17 -16 34 -30 38 -30 4 0 -5 14 -21 30 -16 17 -33 30
-38 30 -5 0 5 -13 21 -30z"/>
<path d="M2880 8149 c0 -5 5 -7 10 -4 6 3 10 8 10 11 0 2 -4 4 -10 4 -5 0 -10
-5 -10 -11z"/>
<path d="M2831 8104 c-19 -19 -31 -38 -27 -41 4 -4 13 3 21 15 9 11 23 28 31
37 9 9 14 18 12 20 -2 3 -19 -11 -37 -31z"/>
<path d="M5716 8112 c-2 -4 -1 -14 5 -22 7 -12 9 -10 9 8 0 23 -5 28 -14 14z"/>
<path d="M5740 8061 c0 -6 5 -13 10 -16 6 -3 10 1 10 9 0 9 -4 16 -10 16 -5 0
-10 -4 -10 -9z"/>
<path d="M5770 8015 c0 -8 4 -15 10 -15 5 0 7 7 4 15 -4 8 -8 15 -10 15 -2 0
-4 -7 -4 -15z"/>
<path d="M2722 7915 c0 -16 2 -22 5 -12 2 9 2 23 0 30 -3 6 -5 -1 -5 -18z"/>
<path d="M5827 7843 c-9 -14 -7 -228 2 -333 11 -117 16 -39 11 155 -3 105 -9
184 -13 178z"/>
<path d="M2723 7550 c0 -41 2 -58 4 -37 2 20 2 54 0 75 -2 20 -4 3 -4 -38z"/>
<path d="M3267 7393 c-2 -5 -4 -47 -5 -96 0 -48 -6 -131 -12 -184 -7 -53 -9
-111 -5 -129 5 -30 8 -32 25 -22 17 11 19 26 18 180 0 94 4 174 10 181 6 8 5
23 -4 45 -14 33 -20 38 -27 25z"/>
<path d="M5295 7343 c-22 -25 -56 -52 -77 -60 -39 -15 -51 -33 -23 -33 15 0
25 6 60 38 7 6 18 12 23 12 6 0 13 7 16 16 4 9 9 14 13 11 12 -13 43 15 43 38
0 34 -8 30 -55 -22z"/>
<path d="M4318 7373 c7 -3 16 -2 19 1 4 3 -2 6 -13 5 -11 0 -14 -3 -6 -6z"/>
<path d="M3330 7314 c0 -14 56 -55 83 -61 15 -3 27 -9 27 -14 0 -5 15 -9 33
-8 32 0 32 1 7 11 -57 24 -77 34 -112 55 -21 13 -38 20 -38 17z"/>
<path d="M5858 7308 c-2 -7 -1 -31 3 -53 6 -40 6 -39 8 13 1 51 -3 65 -11 40z"/>
<path d="M5329 7143 c-1 -76 0 -147 1 -158 2 -24 31 -75 42 -75 13 0 9 51 -7
104 -9 31 -15 90 -15 158 0 65 -4 108 -10 108 -6 0 -10 -53 -11 -137z"/>
<path d="M5123 7233 c9 -2 25 -2 35 0 9 3 1 5 -18 5 -19 0 -27 -2 -17 -5z"/>
<path d="M3515 7220 c-4 -6 0 -12 7 -14 7 -2 29 -8 49 -15 44 -14 219 -15 219
-1 0 6 -38 10 -93 10 -51 0 -97 4 -102 9 -16 13 -74 21 -80 11z"/>
<path d="M5045 7223 c-11 -3 -24 -9 -29 -14 -6 -5 -43 -9 -82 -9 -40 0 -76 -4
-79 -10 -8 -13 145 -14 177 -1 13 5 36 12 51 16 15 3 25 10 22 15 -6 10 -26
11 -60 3z"/>
<path d="M2722 7160 c0 -19 2 -27 5 -17 2 9 2 25 0 35 -3 9 -5 1 -5 -18z"/>
<path d="M5880 7151 c0 -17 5 -33 10 -36 6 -4 10 8 10 29 0 20 -4 36 -10 36
-5 0 -10 -13 -10 -29z"/>
<path d="M2698 7054 c-5 -4 -8 -23 -8 -43 0 -25 3 -32 11 -24 6 6 9 25 7 43
-2 17 -6 28 -10 24z"/>
<path d="M5943 6950 c0 -30 2 -43 4 -27 2 15 2 39 0 55 -2 15 -4 2 -4 -28z"/>
<path d="M5306 6904 c-10 -25 -7 -94 4 -94 6 0 10 25 10 55 0 57 -3 66 -14 39z"/>
<path d="M3217 6883 c-11 -10 -8 -73 3 -73 6 0 10 18 10 40 0 41 -2 45 -13 33z"/>
<path d="M5960 6856 c0 -14 5 -28 10 -31 6 -4 10 7 10 24 0 17 -4 31 -10 31
-5 0 -10 -11 -10 -24z"/>
<path d="M2643 6820 c0 -25 2 -35 4 -22 2 12 2 32 0 45 -2 12 -4 2 -4 -23z"/>
<path d="M3323 6794 c-3 -8 -1 -25 5 -37 10 -20 11 -18 11 16 1 39 -5 48 -16
21z"/>
<path d="M5990 6781 c0 -17 5 -31 10 -31 6 0 10 11 10 24 0 14 -4 28 -10 31
-6 4 -10 -7 -10 -24z"/>
<path d="M5277 6773 c-3 -16 -1 -35 4 -43 6 -10 8 -2 9 28 0 48 -5 55 -13 15z"/>
<path d="M5422 6770 c0 -19 2 -27 5 -17 2 9 2 25 0 35 -3 9 -5 1 -5 -18z"/>
<path d="M3186 6768 c-5 -16 -5 -36 0 -45 7 -16 8 -15 11 5 3 12 3 32 0 45 -3
21 -4 20 -11 -5z"/>
<path d="M2610 6736 c0 -14 5 -26 10 -26 6 0 10 9 10 19 0 11 -4 23 -10 26 -6
4 -10 -5 -10 -19z"/>
<path d="M3350 6696 c0 -19 5 -38 10 -41 6 -4 10 8 10 29 0 19 -4 38 -10 41
-6 4 -10 -8 -10 -29z"/>
<path d="M5440 6680 c0 -16 5 -30 10 -30 6 0 10 14 10 30 0 17 -4 30 -10 30
-5 0 -10 -13 -10 -30z"/>
<path d="M6020 6690 c0 -11 4 -20 9 -20 5 0 7 9 4 20 -3 11 -7 20 -9 20 -2 0
-4 -9 -4 -20z"/>
<path d="M2588 6694 c-5 -4 -8 -16 -8 -28 0 -14 3 -17 11 -9 6 6 9 19 7 28 -1
9 -6 13 -10 9z"/>
<path d="M3162 6640 c0 -19 2 -27 5 -17 2 9 2 25 0 35 -3 9 -5 1 -5 -18z"/>
<path d="M5253 6630 c0 -25 2 -35 4 -22 2 12 2 32 0 45 -2 12 -4 2 -4 -23z"/>
<path d="M6040 6641 c0 -20 13 -35 23 -25 7 8 -4 44 -14 44 -5 0 -9 -9 -9 -19z"/>
<path d="M5471 6605 c1 -40 1 -40 11 -12 7 21 7 32 -1 40 -8 8 -11 0 -10 -28z"/>
<path d="M2561 6614 c0 -11 3 -14 6 -6 3 7 2 16 -1 19 -3 4 -6 -2 -5 -13z"/>
<path d="M6075 6591 c-3 -5 -1 -12 5 -16 5 -3 10 1 10 9 0 18 -6 21 -15 7z"/>
<path d="M2526 6574 c-4 -9 -4 -19 -2 -21 8 -8 26 8 26 23 0 19 -16 18 -24 -2z"/>
<path d="M3130 6548 c0 -32 3 -39 10 -28 13 20 13 70 0 70 -5 0 -10 -19 -10
-42z"/>
<path d="M5227 6563 c-11 -10 -8 -171 3 -178 6 -4 10 28 10 89 0 96 -1 102
-13 89z"/>
<path d="M6100 6544 c0 -15 39 -54 45 -44 3 5 -1 13 -9 16 -9 3 -16 12 -16 20
0 8 -4 14 -10 14 -5 0 -10 -3 -10 -6z"/>
<path d="M2500 6525 c0 -8 2 -15 4 -15 2 0 6 7 10 15 3 8 1 15 -4 15 -6 0 -10
-7 -10 -15z"/>
<path d="M5500 6450 c0 -40 3 -71 6 -68 7 8 7 128 0 136 -4 3 -6 -28 -6 -68z"/>
<path d="M2470 6475 c0 -8 5 -15 10 -15 6 0 10 7 10 15 0 8 -4 15 -10 15 -5 0
-10 -7 -10 -15z"/>
<path d="M3108 6477 c-13 -30 -10 -183 2 -171 7 7 10 47 8 100 -2 52 -6 81
-10 71z"/>
<path d="M6162 6450 c0 -14 2 -19 5 -12 2 6 2 18 0 25 -3 6 -5 1 -5 -13z"/>
<path d="M3383 6375 c0 -33 2 -45 4 -27 2 18 2 45 0 60 -2 15 -4 0 -4 -33z"/>
<path d="M6180 6396 c0 -14 5 -28 10 -31 6 -3 10 5 10 19 0 14 -4 28 -10 31
-6 3 -10 -5 -10 -19z"/>
<path d="M2858 6393 c6 -2 18 -2 25 0 6 3 1 5 -13 5 -14 0 -19 -2 -12 -5z"/>
<path d="M5708 6393 c6 -2 18 -2 25 0 6 3 1 5 -13 5 -14 0 -19 -2 -12 -5z"/>
<path d="M2422 6365 c0 -16 2 -22 5 -12 2 9 2 23 0 30 -3 6 -5 -1 -5 -18z"/>
<path d="M5253 6300 c0 -36 2 -50 4 -32 2 17 2 47 0 65 -2 17 -4 3 -4 -33z"/>
<path d="M6210 6336 c0 -14 5 -26 10 -26 6 0 10 9 10 19 0 11 -4 23 -10 26 -6
4 -10 -5 -10 -19z"/>
<path d="M2390 6278 c0 -25 3 -29 10 -18 13 20 13 50 0 50 -5 0 -10 -15 -10
-32z"/>
<path d="M3356 6274 c-10 -26 -7 -222 4 -229 6 -4 10 38 10 119 0 69 -2 126
-4 126 -2 0 -7 -7 -10 -16z"/>
<path d="M5520 6261 c0 -16 3 -37 7 -47 6 -17 7 -17 13 1 8 23 0 75 -11 75 -5
0 -9 -13 -9 -29z"/>
<path d="M6243 6235 c0 -22 2 -30 4 -17 2 12 2 30 0 40 -3 9 -5 -1 -4 -23z"/>
<path d="M2368 6234 c-5 -4 -8 -21 -8 -38 0 -21 3 -27 11 -19 6 6 9 23 7 38
-2 15 -6 23 -10 19z"/>
<path d="M3083 6200 c0 -25 2 -35 4 -22 2 12 2 32 0 45 -2 12 -4 2 -4 -23z"/>
<path d="M4306 6181 c-13 -15 -14 -22 -3 -44 6 -15 14 -27 17 -27 6 0 40 59
40 70 0 16 -39 17 -54 1z"/>
<path d="M6264 6176 c-3 -7 -1 -29 4 -47 l10 -34 1 48 c1 47 -5 60 -15 33z"/>
<path d="M5550 6161 c0 -6 5 -13 10 -16 6 -3 10 1 10 9 0 9 -4 16 -10 16 -5 0
-10 -4 -10 -9z"/>
<path d="M3050 6113 c0 -22 2 -25 10 -13 13 20 13 40 0 40 -5 0 -10 -12 -10
-27z"/>
<path d="M2338 6097 c-2 -18 -1 -44 3 -58 5 -16 7 -5 8 34 1 63 -5 76 -11 24z"/>
<path d="M5580 6073 c0 -18 4 -33 9 -33 5 0 12 -12 15 -26 5 -18 11 -23 17
-17 11 11 2 43 -12 43 -5 0 -9 8 -9 18 0 9 -5 24 -10 32 -7 11 -10 7 -10 -17z"/>
<path d="M3020 6054 c0 -14 4 -23 10 -19 6 3 10 15 10 26 0 10 -4 19 -10 19
-5 0 -10 -12 -10 -26z"/>
<path d="M6291 6028 c2 -88 17 -115 18 -31 1 39 -3 75 -9 78 -6 4 -10 -14 -9
-47z"/>
<path d="M5253 6025 c0 -22 2 -30 4 -17 2 12 2 30 0 40 -3 9 -5 -1 -4 -23z"/>
<path d="M3382 5930 c1 -52 3 -78 5 -57 5 45 24 55 59 32 14 -9 28 -14 31 -11
5 5 -39 50 -63 64 -6 4 -16 21 -22 37 -9 25 -10 14 -10 -65z"/>
<path d="M2994 5985 c-4 -11 -14 -25 -23 -31 -9 -7 -12 -18 -7 -29 5 -15 10
-11 26 21 11 21 18 43 16 49 -2 5 -7 1 -12 -10z"/>
<path d="M5642 5950 c0 -14 2 -19 5 -12 2 6 2 18 0 25 -3 6 -5 1 -5 -13z"/>
<path d="M5660 5906 c0 -8 5 -18 10 -21 6 -3 10 3 10 14 0 12 -4 21 -10 21 -5
0 -10 -6 -10 -14z"/>
<path d="M2942 5880 c0 -14 2 -19 5 -12 2 6 2 18 0 25 -3 6 -5 1 -5 -13z"/>
<path d="M5253 5845 c0 -22 2 -30 4 -17 2 12 2 30 0 40 -3 9 -5 -1 -4 -23z"/>
<path d="M5690 5856 c0 -9 5 -16 10 -16 6 0 10 4 10 9 0 6 -4 13 -10 16 -5 3
-10 -1 -10 -9z"/>
<path d="M2910 5824 c0 -8 5 -12 10 -9 6 3 10 10 10 16 0 5 -4 9 -10 9 -5 0
-10 -7 -10 -16z"/>
<path d="M5722 5795 c0 -16 2 -22 5 -12 2 9 2 23 0 30 -3 6 -5 -1 -5 -18z"/>
<path d="M3358 5797 c-13 -30 -10 -133 3 -120 5 5 9 38 7 74 -2 41 -6 57 -10
46z"/>
<path d="M2884 5789 c-3 -6 -1 -16 5 -22 8 -8 11 -5 11 11 0 24 -5 28 -16 11z"/>
<path d="M6320 5728 c0 -32 4 -58 10 -58 13 0 13 80 0 100 -7 11 -10 -2 -10
-42z"/>
<path d="M2281 5694 c1 -56 3 -63 9 -36 8 36 7 89 -4 99 -3 3 -6 -25 -5 -63z"/>
<path d="M5740 5748 c0 -7 5 -20 10 -28 8 -12 10 -9 10 13 0 15 -4 27 -10 27
-5 0 -10 -6 -10 -12z"/>
<path d="M2862 5710 c0 -14 2 -19 5 -12 2 6 2 18 0 25 -3 6 -5 1 -5 -13z"/>
<path d="M5277 5698 c-3 -18 -2 -51 2 -73 8 -36 9 -33 10 33 1 77 -3 92 -12
40z"/>
<path d="M5770 5696 c0 -8 5 -18 10 -21 6 -3 10 1 10 9 0 8 -4 18 -10 21 -5 3
-10 -1 -10 -9z"/>
<path d="M2827 5661 c-5 -22 1 -33 14 -25 12 7 12 44 0 44 -5 0 -11 -9 -14
-19z"/>
<path d="M5800 5613 c0 -13 5 -23 10 -23 13 0 13 11 0 30 -8 12 -10 11 -10 -7z"/>
<path d="M5300 5523 c0 -32 5 -65 10 -73 7 -11 10 5 10 52 0 37 -4 70 -10 73
-6 4 -10 -16 -10 -52z"/>
<path d="M5820 5573 c0 -14 19 -38 25 -32 8 8 -5 39 -16 39 -5 0 -9 -3 -9 -7z"/>
<path d="M2258 5547 c-12 -29 -10 -83 3 -70 6 6 9 28 7 49 -2 29 -5 34 -10 21z"/>
<path d="M2778 5544 c-5 -4 -8 -16 -8 -28 0 -14 3 -17 11 -9 6 6 9 19 7 28 -1
9 -6 13 -10 9z"/>
<path d="M5862 5495 c0 -16 2 -22 5 -12 2 9 2 23 0 30 -3 6 -5 -1 -5 -18z"/>
<path d="M6383 5450 c0 -36 2 -50 4 -32 2 17 2 47 0 65 -2 17 -4 3 -4 -33z"/>
<path d="M2743 5484 c-3 -8 -1 -20 6 -27 8 -8 11 -4 11 16 0 30 -7 35 -17 11z"/>
<path d="M3298 5383 c-2 -38 0 -72 4 -77 4 -6 8 25 8 67 0 42 -2 77 -4 77 -2
0 -6 -30 -8 -67z"/>
<path d="M5880 5436 c0 -8 5 -18 10 -21 6 -3 10 3 10 14 0 12 -4 21 -10 21 -5
0 -10 -6 -10 -14z"/>
<path d="M2722 5420 c0 -14 2 -19 5 -12 2 6 2 18 0 25 -3 6 -5 1 -5 -13z"/>
<path d="M5910 5391 c0 -12 5 -21 10 -21 6 0 10 6 10 14 0 8 -4 18 -10 21 -5
3 -10 -3 -10 -14z"/>
<path d="M2690 5359 c0 -11 5 -17 10 -14 6 3 10 13 10 21 0 8 -4 14 -10 14 -5
0 -10 -9 -10 -21z"/>
<path d="M5331 5306 c-1 -37 2 -47 10 -39 8 8 8 22 1 50 l-10 38 -1 -49z"/>
<path d="M5942 5330 c0 -14 2 -19 5 -12 2 6 2 18 0 25 -3 6 -5 1 -5 -13z"/>
<path d="M6400 5321 c0 -17 5 -33 10 -36 6 -4 10 8 10 29 0 20 -4 36 -10 36
-5 0 -10 -13 -10 -29z"/>
<path d="M2203 5295 c0 -22 2 -30 4 -17 2 12 2 30 0 40 -3 9 -5 -1 -4 -23z"/>
<path d="M2660 5315 c0 -8 5 -15 10 -15 6 0 10 7 10 15 0 8 -4 15 -10 15 -5 0
-10 -7 -10 -15z"/>
<path d="M5964 5284 c3 -9 6 -18 6 -20 0 -3 4 -3 10 1 11 7 2 35 -12 35 -6 0
-7 -7 -4 -16z"/>
<path d="M2642 5260 c0 -14 2 -19 5 -12 2 6 2 18 0 25 -3 6 -5 1 -5 -13z"/>
<path d="M3270 4756 c0 -292 4 -515 9 -512 9 6 6 1014 -3 1024 -3 3 -6 -227
-6 -512z"/>
<path d="M5990 5241 c0 -12 5 -21 10 -21 6 0 10 6 10 14 0 8 -4 18 -10 21 -5
3 -10 -3 -10 -14z"/>
<path d="M6430 5231 c0 -17 5 -31 10 -31 6 0 10 11 10 24 0 14 -4 28 -10 31
-6 4 -10 -7 -10 -24z"/>
<path d="M2610 5211 c0 -25 6 -27 13 -6 4 8 2 17 -3 20 -6 4 -10 -3 -10 -14z"/>
<path d="M2170 5181 c0 -17 5 -31 10 -31 6 0 10 11 10 24 0 14 -4 28 -10 31
-6 4 -10 -7 -10 -24z"/>
<path d="M6020 5183 c0 -13 5 -23 10 -23 13 0 13 11 0 30 -8 12 -10 11 -10 -7z"/>
<path d="M2580 5159 c0 -11 5 -17 10 -14 6 3 10 13 10 21 0 8 -4 14 -10 14 -5
0 -10 -9 -10 -21z"/>
<path d="M5364 4905 c0 -148 2 -211 3 -138 2 72 2 194 0 270 -1 76 -3 17 -3
-132z"/>
<path d="M6460 5143 c0 -13 5 -23 10 -23 13 0 13 11 0 30 -8 12 -10 11 -10 -7z"/>
<path d="M6040 5143 c0 -5 5 -15 10 -23 8 -12 10 -11 10 8 0 12 -4 22 -10 22
-5 0 -10 -3 -10 -7z"/>
<path d="M2140 5119 c0 -11 5 -17 10 -14 6 3 10 13 10 21 0 8 -4 14 -10 14 -5
0 -10 -9 -10 -21z"/>
<path d="M2555 5107 c-4 -10 -5 -21 -1 -24 10 -10 18 4 13 24 -4 17 -4 17 -12
0z"/>
<path d="M6070 5083 c0 -5 5 -15 10 -23 8 -12 10 -11 10 8 0 12 -4 22 -10 22
-5 0 -10 -3 -10 -7z"/>
<path d="M2085 5060 c-3 -5 -1 -10 4 -10 6 0 11 5 11 10 0 6 -2 10 -4 10 -3 0
-8 -4 -11 -10z"/>
<path d="M2526 5052 c-6 -18 2 -113 10 -121 2 -2 4 28 4 67 0 73 -4 87 -14 54z"/>
<path d="M2055 5040 c-3 -5 -1 -10 4 -10 6 0 11 5 11 10 0 6 -2 10 -4 10 -3 0
-8 -4 -11 -10z"/>
<path d="M6595 5010 c3 -5 8 -10 11 -10 2 0 4 5 4 10 0 6 -5 10 -11 10 -5 0
-7 -4 -4 -10z"/>
<path d="M6625 4990 c3 -5 8 -10 11 -10 2 0 4 5 4 10 0 6 -5 10 -11 10 -5 0
-7 -4 -4 -10z"/>
<path d="M6650 4970 c0 -5 10 -10 23 -10 18 0 19 2 7 10 -19 13 -30 13 -30 0z"/>
<path d="M1948 4963 c7 -3 16 -2 19 1 4 3 -2 6 -13 5 -11 0 -14 -3 -6 -6z"/>
<path d="M6705 4940 c3 -5 8 -10 11 -10 2 0 4 5 4 10 0 6 -5 10 -11 10 -5 0
-7 -4 -4 -10z"/>
<path d="M6102 4813 c-1 -66 2 -114 8 -118 11 -7 11 52 0 160 -7 67 -7 66 -8
-42z"/>
<path d="M1866 4901 c-4 -5 -2 -12 3 -15 5 -4 12 -2 15 3 4 5 2 12 -3 15 -5 4
-12 2 -15 -3z"/>
<path d="M6760 4886 c0 -8 5 -18 10 -21 6 -3 10 1 10 9 0 8 -4 18 -10 21 -5 3
-10 -1 -10 -9z"/>
<path d="M1840 4870 c0 -5 5 -10 10 -10 6 0 10 5 10 10 0 6 -4 10 -10 10 -5 0
-10 -4 -10 -10z"/>
<path d="M6790 4847 c0 -9 5 -17 10 -17 6 0 15 -10 20 -22 7 -18 9 -19 9 -5 1
10 -8 27 -19 39 -17 19 -20 19 -20 5z"/>
<path d="M1780 4775 c0 -8 -7 -15 -16 -15 -8 0 -12 -5 -9 -11 5 -7 14 -4 26 7
21 19 25 34 9 34 -5 0 -10 -7 -10 -15z"/>
<path d="M4285 4770 c-10 -16 6 -81 22 -87 21 -8 33 16 26 52 -8 39 -34 58
-48 35z"/>
<path d="M6846 4765 c4 -8 13 -15 21 -15 12 0 12 2 -1 15 -8 8 -17 15 -20 15
-3 0 -3 -7 0 -15z"/>
<path d="M2503 4710 c0 -30 2 -43 4 -27 2 15 2 39 0 55 -2 15 -4 2 -4 -28z"/>
<path d="M1730 4725 c0 -8 -7 -15 -15 -15 -9 0 -15 -9 -15 -22 1 -23 1 -23 16
-3 27 34 36 55 24 55 -5 0 -10 -7 -10 -15z"/>
<path d="M6900 4715 c0 -8 4 -15 10 -15 5 0 7 7 4 15 -4 8 -8 15 -10 15 -2 0
-4 -7 -4 -15z"/>
<path d="M1885 4678 c-11 -6 -29 -20 -40 -30 -20 -19 -19 -19 17 -16 31 2 39
7 47 30 11 31 6 33 -24 16z"/>
<path d="M6714 4665 c9 -14 19 -60 23 -112 l8 -88 5 80 c5 74 7 80 28 83 22 3
21 5 -14 33 -47 37 -73 40 -50 4z"/>
<path d="M6931 4677 c-1 -10 8 -27 19 -39 17 -19 20 -19 20 -5 0 9 -4 17 -8
17 -5 0 -14 10 -20 23 -9 18 -11 19 -11 4z"/>
<path d="M6130 4650 c0 -18 4 -29 10 -25 6 3 10 15 10 25 0 10 -4 22 -10 25
-6 4 -10 -7 -10 -25z"/>
<path d="M1681 4654 c0 -11 3 -14 6 -6 3 7 2 16 -1 19 -3 4 -6 -2 -5 -13z"/>
<path d="M4341 4563 c2 -151 16 -180 18 -36 1 72 -3 124 -9 128 -6 4 -10 -29
-9 -92z"/>
<path d="M1646 4621 c-4 -5 -2 -12 3 -15 5 -4 12 -2 15 3 4 5 2 12 -3 15 -5 4
-12 2 -15 -3z"/>
<path d="M2470 4606 c0 -15 -7 -26 -20 -29 -13 -3 -18 -10 -14 -21 9 -24 19
-19 37 19 19 41 21 55 7 55 -5 0 -10 -11 -10 -24z"/>
<path d="M1620 4586 c0 -37 12 -46 59 -44 l46 1 -45 6 c-39 5 -45 9 -43 29 2
12 -2 22 -7 22 -6 0 -10 -6 -10 -14z"/>
<path d="M6162 4580 c0 -14 2 -19 5 -12 2 6 2 18 0 25 -3 6 -5 1 -5 -13z"/>
<path d="M6858 4580 c12 -11 27 -20 34 -20 7 0 2 9 -12 20 -33 26 -50 26 -22
0z"/>
<path d="M1867 4468 c-3 -51 -1 -97 4 -102 5 -6 9 30 9 92 0 56 -2 102 -4 102
-2 0 -6 -42 -9 -92z"/>
<path d="M6950 4550 l-35 -7 38 -2 c20 0 37 4 37 9 0 6 -1 9 -2 9 -2 -1 -19
-5 -38 -9z"/>
<path d="M6180 4526 c0 -8 5 -18 10 -21 6 -3 10 3 10 14 0 12 -4 21 -10 21 -5
0 -10 -6 -10 -14z"/>
<path d="M2417 4505 c-4 -8 -2 -17 3 -20 6 -4 10 3 10 14 0 25 -6 27 -13 6z"/>
<path d="M4259 4380 c-2 -80 -2 -206 1 -280 5 -132 5 -130 12 105 5 132 4 258
-1 280 -6 31 -9 7 -12 -105z"/>
<path d="M6210 4481 c0 -6 5 -13 10 -16 6 -3 10 1 10 9 0 9 -4 16 -10 16 -5 0
-10 -4 -10 -9z"/>
<path d="M2384 4459 c-3 -6 -1 -16 5 -22 8 -8 11 -5 11 11 0 24 -5 28 -16 11z"/>
<path d="M6241 4428 c-1 -16 4 -28 9 -28 12 0 12 8 0 35 -8 18 -9 17 -9 -7z"/>
<path d="M2360 4398 c0 -25 3 -29 10 -18 13 20 13 50 0 50 -5 0 -10 -15 -10
-32z"/>
<path d="M6763 4325 c0 -27 2 -38 4 -22 2 15 2 37 0 50 -2 12 -4 0 -4 -28z"/>
<path d="M2012 4325 c0 -16 2 -22 5 -12 2 9 2 23 0 30 -3 6 -5 -1 -5 -18z"/>
<path d="M2336 4323 c-4 -9 -2 -21 4 -27 7 -7 10 -2 10 17 0 31 -5 34 -14 10z"/>
<path d="M1840 4209 c0 -64 4 -98 10 -94 6 3 10 48 10 101 0 56 -4 94 -10 94
-6 0 -10 -40 -10 -101z"/>
<path d="M2232 4270 c0 -14 2 -19 5 -12 2 6 2 18 0 25 -3 6 -5 1 -5 -13z"/>
<path d="M2306 4245 c-9 -24 -7 -55 3 -55 12 0 20 46 11 60 -5 8 -9 6 -14 -5z"/>
<path d="M6407 4205 c-4 -8 -2 -17 3 -20 6 -4 10 3 10 14 0 25 -6 27 -13 6z"/>
<path d="M4372 4045 c-1 -88 2 -153 6 -145 5 8 5 80 2 160 l-6 145 -2 -160z"/>
<path d="M6320 4191 c0 -5 5 -13 10 -16 6 -3 10 -2 10 4 0 5 -4 13 -10 16 -5
3 -10 2 -10 -4z"/>
<path d="M3304 4090 c0 -58 1 -81 3 -52 2 28 2 76 0 105 -2 28 -3 5 -3 -53z"/>
<path d="M2196 4156 c-9 -34 3 -55 18 -33 7 8 23 17 36 20 25 4 24 4 -2 6 -15
0 -31 8 -36 17 -8 14 -10 12 -16 -10z"/>
<path d="M5331 4164 c0 -11 3 -14 6 -6 3 7 2 16 -1 19 -3 4 -6 -2 -5 -13z"/>
<path d="M6400 4160 c-8 -5 -23 -7 -32 -4 -10 3 -18 1 -18 -4 0 -5 16 -13 36
-16 20 -4 37 -14 40 -24 14 -44 17 -47 21 -26 6 32 -29 85 -47 74z"/>
<path d="M6650 4140 c0 -11 5 -20 10 -20 6 0 10 9 10 20 0 11 -4 20 -10 20 -5
0 -10 -9 -10 -20z"/>
<path d="M2088 4132 c-3 -9 -1 -26 3 -37 6 -15 8 -11 8 18 1 40 -4 48 -11 19z"/>
<path d="M1933 4074 c-21 -22 -21 -23 -2 -29 10 -4 19 -13 19 -21 0 -8 5 -12
10 -9 12 7 14 72 3 78 -5 2 -18 -7 -30 -19z"/>
<path d="M1870 4080 c0 -5 5 -10 11 -10 5 0 7 5 4 10 -3 6 -8 10 -11 10 -2 0
-4 -4 -4 -10z"/>
<path d="M2167 4070 c-3 -11 -1 -20 4 -20 5 0 9 9 9 20 0 11 -2 20 -4 20 -2 0
-6 -9 -9 -20z"/>
<path d="M6674 4065 c-9 -22 2 -30 26 -19 l20 9 -20 13 c-17 10 -21 10 -26 -3z"/>
<path d="M6460 4046 c0 -8 7 -17 16 -20 25 -9 26 -2 4 17 -16 13 -20 14 -20 3z"/>
<path d="M6534 4033 c-10 -27 -9 -28 23 -30 l33 -2 -22 30 c-12 16 -22 29 -23
29 0 0 -5 -12 -11 -27z"/>
<path d="M2060 4035 c0 -8 0 -18 0 -22 0 -5 13 -8 29 -8 25 0 27 2 18 15 -25
32 -47 39 -47 15z"/>
<path d="M2140 4029 c0 -5 5 -7 10 -4 6 3 10 8 10 11 0 2 -4 4 -10 4 -5 0 -10
-5 -10 -11z"/>
<path d="M5308 4017 c-13 -30 -10 -143 2 -131 6 6 10 41 8 80 -2 43 -6 62 -10
51z"/>
<path d="M6650 4010 c0 -5 5 -10 10 -10 6 0 10 5 10 10 0 6 -4 10 -10 10 -5 0
-10 -4 -10 -10z"/>
<path d="M1988 3983 c6 -2 18 -2 25 0 6 3 1 5 -13 5 -14 0 -19 -2 -12 -5z"/>
<path d="M6608 3983 c6 -2 18 -2 25 0 6 3 1 5 -13 5 -14 0 -19 -2 -12 -5z"/>
<path d="M4231 3878 c1 -55 3 -66 9 -43 11 45 11 115 0 115 -6 0 -10 -30 -9
-72z"/>
<path d="M5283 3805 c0 -38 2 -53 4 -32 2 20 2 52 0 70 -2 17 -4 1 -4 -38z"/>
<path d="M3350 3713 c0 -27 5 -55 10 -63 7 -11 10 3 10 48 0 35 -4 62 -10 62
-5 0 -10 -21 -10 -47z"/>
<path d="M4206 3703 c-6 -71 -5 -93 6 -93 4 0 8 34 8 75 0 41 -2 75 -4 75 -2
0 -7 -26 -10 -57z"/>
<path d="M4434 3580 c0 -58 1 -81 3 -52 2 28 2 76 0 105 -2 28 -3 5 -3 -53z"/>
<path d="M5253 3615 c0 -33 2 -45 4 -27 2 18 2 45 0 60 -2 15 -4 0 -4 -33z"/>
<path d="M3382 3555 c-1 -41 2 -64 7 -55 4 8 5 40 1 70 l-7 55 -1 -70z"/>
<path d="M4177 3453 c-9 -137 -7 -301 3 -333 5 -14 8 75 9 208 1 127 -1 232
-2 232 -2 0 -7 -48 -10 -107z"/>
<path d="M5228 3524 c-5 -4 -8 -32 -8 -63 1 -43 3 -52 11 -38 11 19 8 113 -3
101z"/>
<path d="M3410 3365 c0 -38 3 -65 7 -62 7 7 5 118 -2 126 -3 2 -5 -26 -5 -64z"/>
<path d="M5196 3368 c-9 -36 -7 -78 4 -78 6 0 10 23 10 50 0 54 -4 63 -14 28z"/>
<path d="M5087 3293 c-4 -3 -7 -11 -7 -17 0 -6 5 -5 12 2 6 6 9 14 7 17 -3 3
-9 2 -12 -2z"/>
<path d="M4432 3255 c0 -16 2 -22 5 -12 2 9 2 23 0 30 -3 6 -5 -1 -5 -18z"/>
<path d="M5030 3175 c0 -27 3 -45 7 -42 7 8 6 77 -2 85 -3 3 -5 -16 -5 -43z"/>
<path d="M5174 3065 c0 -88 2 -123 3 -77 2 46 2 118 0 160 -1 42 -3 5 -3 -83z"/>
<path d="M3798 3183 c7 -3 16 -2 19 1 4 3 -2 6 -13 5 -11 0 -14 -3 -6 -6z"/>
<path d="M4808 3183 c7 -3 16 -2 19 1 4 3 -2 6 -13 5 -11 0 -14 -3 -6 -6z"/>
<path d="M3930 3110 c0 -5 5 -10 10 -10 6 0 10 5 10 10 0 6 -4 10 -10 10 -5 0
-10 -4 -10 -10z"/>
<path d="M4153 3020 c0 -30 2 -43 4 -27 2 15 2 39 0 55 -2 15 -4 2 -4 -28z"/>
<path d="M3868 2971 c-14 -17 -15 -21 -2 -32 19 -16 26 -7 22 26 -3 26 -3 26
-20 6z"/>
<path d="M4480 2948 c0 -21 5 -38 10 -38 13 0 13 40 0 60 -7 11 -10 5 -10 -22z"/>
<path d="M4120 2899 c0 -11 5 -17 10 -14 6 3 10 13 10 21 0 8 -4 14 -10 14 -5
0 -10 -9 -10 -21z"/>
<path d="M4512 2860 c0 -19 2 -27 5 -17 2 9 2 25 0 35 -3 9 -5 1 -5 -18z"/>
<path d="M4080 2800 c-10 -46 -10 -67 -1 -86 6 -14 11 -72 11 -129 0 -106 8
-155 19 -122 9 25 1 397 -8 397 -5 0 -14 -27 -21 -60z"/>
<path d="M4529 2798 c-3 -33 4 -64 17 -77 20 -22 24 -11 11 42 -10 44 -26 63
-28 35z"/>
<path d="M5199 2738 c-7 -16 -6 -539 1 -543 6 -4 10 96 10 269 0 232 -2 293
-11 274z"/>
<path d="M3414 2470 c0 -146 2 -205 3 -132 2 72 2 192 0 265 -1 72 -3 13 -3
-133z"/>
<path d="M4514 2485 c0 -77 2 -107 3 -67 2 40 2 103 0 140 -2 37 -3 4 -3 -73z"/>
<path d="M4010 2570 c0 -16 5 -30 10 -30 6 0 10 14 10 30 0 17 -4 30 -10 30
-5 0 -10 -13 -10 -30z"/>
<path d="M4618 2483 c-2 -10 -1 -29 3 -43 6 -20 7 -17 8 18 1 44 -4 54 -11 25z"/>
<path d="M4514 2135 c0 -55 1 -76 3 -47 2 29 2 74 0 100 -2 26 -3 2 -3 -53z"/>
<path d="M3431 2103 c2 -116 16 -140 18 -30 1 59 -3 97 -9 97 -6 0 -10 -28 -9
-67z"/>
<path d="M4097 2093 c-11 -10 -8 -103 3 -103 6 0 10 25 10 55 0 56 -1 60 -13
48z"/>
<path d="M5167 1954 c-4 -37 -2 -74 3 -83 6 -11 9 10 10 67 0 45 -2 82 -4 82
-2 0 -6 -30 -9 -66z"/>
<path d="M4531 1963 c0 -16 4 -37 9 -48 6 -15 9 -8 9 28 1 26 -3 47 -9 47 -5
0 -10 -12 -9 -27z"/>
<path d="M4073 1905 c0 -33 2 -45 4 -27 2 18 2 45 0 60 -2 15 -4 0 -4 -33z"/>
<path d="M3460 1868 c0 -31 5 -60 10 -63 13 -8 13 85 0 105 -7 11 -10 -1 -10
-42z"/>
<path d="M4560 1858 c0 -18 5 -40 10 -48 7 -11 10 -4 10 27 0 23 -4 45 -10 48
-6 4 -10 -7 -10 -27z"/>
<path d="M4590 1738 c0 -23 3 -29 9 -19 8 12 4 51 -5 51 -2 0 -4 -15 -4 -32z"/>
<path d="M3490 1688 c0 -31 5 -60 10 -63 13 -8 13 85 0 105 -7 11 -10 -1 -10
-42z"/>
<path d="M4010 1709 c0 -17 4 -28 10 -24 6 3 10 17 10 31 0 13 -4 24 -10 24
-5 0 -10 -14 -10 -31z"/>
<path d="M3987 1583 c-10 -97 -8 -143 3 -143 6 0 10 42 10 105 0 58 -2 105 -4
105 -2 0 -6 -30 -9 -67z"/>
<path d="M3518 1593 c-2 -10 -1 -38 3 -63 6 -43 6 -43 7 18 2 61 -2 79 -10 45z"/>
<path d="M5086 1508 c-9 -36 -7 -88 4 -88 6 0 10 25 10 55 0 59 -4 69 -14 33z"/>
<path d="M3553 1385 c0 -38 2 -53 4 -32 2 20 2 52 0 70 -2 17 -4 1 -4 -38z"/>
<path d="M5055 1351 c-4 -30 -2 -57 4 -68 8 -14 10 -3 11 50 0 37 -2 67 -4 67
-2 0 -7 -22 -11 -49z"/>
<path d="M3570 1221 c0 -33 5 -63 10 -66 6 -4 10 16 10 54 0 33 -4 63 -10 66
-6 4 -10 -16 -10 -54z"/>
<path d="M3962 1230 c0 -14 2 -19 5 -12 2 6 2 18 0 25 -3 6 -5 1 -5 -13z"/>
<path d="M5034 1040 c0 -80 2 -112 3 -72 2 39 2 105 0 145 -1 39 -3 7 -3 -73z"/>
<path d="M3987 1153 c-2 -5 -1 -30 3 -58 l7 -50 2 58 c1 54 -2 67 -12 50z"/>
<path d="M3578 997 c-12 -30 -10 -323 2 -311 7 7 9 70 8 170 -2 87 -6 151 -10
141z"/>
<path d="M3985 907 c-4 -29 -2 -68 3 -87 9 -30 10 -23 11 53 1 48 -1 87 -3 87
-3 0 -8 -24 -11 -53z"/>
<path d="M4616 920 c-8 -28 -3 -116 6 -125 10 -11 19 100 10 125 l-10 25 -6
-25z"/>
<path d="M5034 805 c0 -49 1 -71 3 -48 2 23 2 64 0 90 -2 26 -3 8 -3 -42z"/>
<path d="M4010 698 c0 -26 5 -50 10 -53 13 -8 13 65 0 85 -7 11 -10 2 -10 -32z"/>
<path d="M4593 640 c0 -47 2 -66 4 -42 2 23 2 61 0 85 -2 23 -4 4 -4 -43z"/>
<path d="M5057 674 c-10 -10 -9 -42 2 -49 14 -8 19 6 12 33 -3 13 -9 20 -14
16z"/>
<path d="M3552 625 c0 -16 2 -22 5 -12 2 9 2 23 0 30 -3 6 -5 -1 -5 -18z"/>
<path d="M4041 614 c0 -12 -8 -27 -16 -34 -16 -14 -21 -55 -5 -45 6 3 10 15
10 25 0 10 5 20 11 22 6 2 9 15 6 28 -4 22 -4 22 -6 4z"/>
<path d="M5080 586 c0 -8 5 -18 10 -21 6 -3 10 3 10 14 0 12 -4 21 -10 21 -5
0 -10 -6 -10 -14z"/>
<path d="M3521 569 c0 -9 -8 -22 -16 -29 -8 -7 -15 -17 -15 -23 0 -6 9 -1 21
11 11 13 18 30 16 40 -4 15 -5 15 -6 1z"/>
<path d="M5110 544 c0 -17 89 -109 97 -100 4 4 0 12 -10 17 -9 6 -22 16 -27
22 -6 7 -22 26 -35 42 -14 17 -25 25 -25 19z"/>
<path d="M3986 505 c-3 -8 -1 -15 4 -15 6 0 10 7 10 15 0 8 -2 15 -4 15 -2 0
-6 -7 -10 -15z"/>
<path d="M3460 490 c0 -5 5 -10 10 -10 6 0 10 5 10 10 0 6 -4 10 -10 10 -5 0
-10 -4 -10 -10z"/>
<path d="M4651 474 c0 -11 3 -14 6 -6 3 7 2 16 -1 19 -3 4 -6 -2 -5 -13z"/>
<path d="M3956 461 c-4 -7 -5 -15 -2 -18 9 -9 19 4 14 18 -4 11 -6 11 -12 0z"/>
<path d="M3410 439 c0 -5 5 -7 10 -4 6 3 10 8 10 11 0 2 -4 4 -10 4 -5 0 -10
-5 -10 -11z"/>
<path d="M4670 431 c0 -12 5 -21 10 -21 6 0 10 6 10 14 0 8 -4 18 -10 21 -5 3
-10 -3 -10 -14z"/>
<path d="M3930 408 c0 -19 2 -20 10 -8 13 19 13 30 0 30 -5 0 -10 -10 -10 -22z"/>
<path d="M5225 420 c3 -5 8 -10 11 -10 2 0 4 5 4 10 0 6 -5 10 -11 10 -5 0 -7
-4 -4 -10z"/>
<path d="M5250 405 c0 -3 9 -15 20 -27 14 -16 20 -18 20 -7 0 8 -9 20 -20 27
-11 7 -20 10 -20 7z"/>
<path d="M4700 376 c0 -14 5 -26 10 -26 6 0 10 9 10 19 0 11 -4 23 -10 26 -6
4 -10 -5 -10 -19z"/>
<path d="M3325 360 c-3 -5 -1 -10 4 -10 6 0 11 5 11 10 0 6 -2 10 -4 10 -3 0
-8 -4 -11 -10z"/>
<path d="M3900 339 c0 -11 5 -17 10 -14 6 3 10 13 10 21 0 8 -4 14 -10 14 -5
0 -10 -9 -10 -21z"/>
<path d="M5300 350 c0 -5 5 -10 10 -10 6 0 10 5 10 10 0 6 -4 10 -10 10 -5 0
-10 -4 -10 -10z"/>
<path d="M3296 335 c-3 -8 -1 -15 4 -15 13 0 22 18 11 24 -5 3 -11 -1 -15 -9z"/>
<path d="M4732 310 c0 -19 2 -27 5 -17 2 9 2 25 0 35 -3 9 -5 1 -5 -18z"/>
<path d="M5330 315 c0 -8 4 -15 10 -15 5 0 7 7 4 15 -4 8 -8 15 -10 15 -2 0
-4 -7 -4 -15z"/>
<path d="M3270 288 c0 -19 2 -20 10 -8 13 19 13 30 0 30 -5 0 -10 -10 -10 -22z"/>
<path d="M3877 293 c-11 -10 -8 -43 3 -43 6 0 10 11 10 25 0 26 -2 29 -13 18z"/>
<path d="M5360 253 c0 -37 -14 -57 -34 -50 -13 5 -13 2 -4 -19 l12 -25 18 23
c15 20 26 98 13 98 -3 0 -5 -12 -5 -27z"/>
<path d="M4755 250 c-3 -5 -1 -18 4 -27 9 -16 10 -14 11 10 0 28 -5 34 -15 17z"/>
<path d="M3245 241 c-3 -5 -1 -12 5 -16 5 -3 10 1 10 9 0 18 -6 21 -15 7z"/>
<path d="M3852 215 c0 -16 2 -22 5 -12 2 9 2 23 0 30 -3 6 -5 -1 -5 -18z"/>
<path d="M3260 198 c0 -7 5 -20 10 -28 9 -13 11 -13 20 0 16 24 12 40 -10 40
-11 0 -20 -6 -20 -12z"/>
<path d="M3375 190 c-3 -5 -2 -10 4 -10 5 0 13 5 16 10 3 6 2 10 -4 10 -5 0
-13 -4 -16 -10z"/>
<path d="M4780 180 c0 -11 5 -20 10 -20 6 0 10 9 10 20 0 11 -4 20 -10 20 -5
0 -10 -9 -10 -20z"/>
<path d="M5220 190 c0 -5 7 -10 16 -10 8 0 12 5 9 10 -3 6 -10 10 -16 10 -5 0
-9 -4 -9 -10z"/>
<path d="M5136 175 c-4 -10 1 -15 16 -15 17 0 18 2 8 15 -7 8 -14 15 -15 15
-2 0 -5 -7 -9 -15z"/>
<path d="M3460 170 c0 -5 7 -10 16 -10 8 0 12 5 9 10 -3 6 -10 10 -16 10 -5 0
-9 -4 -9 -10z"/>
<path d="M3808 145 c-25 -33 -23 -44 3 -17 11 13 19 27 17 31 -2 5 -11 -1 -20
-14z"/>
<path d="M3325 150 c-11 -5 -14 -9 -7 -9 8 -1 28 -7 45 -14 70 -30 142 -48
105 -26 -10 5 -18 16 -18 24 0 10 -10 12 -40 8 -33 -5 -40 -3 -40 11 0 17 -14
19 -45 6z"/>
<path d="M4810 140 c0 -5 5 -10 10 -10 6 0 10 5 10 10 0 6 -4 10 -10 10 -5 0
-10 -4 -10 -10z"/>
<path d="M5250 140 c0 -6 11 -8 28 -4 39 10 40 14 4 14 -18 0 -32 -5 -32 -10z"/>
<path d="M5167 110 c-13 -16 -14 -20 -2 -20 7 0 17 5 20 10 3 6 17 10 31 10
13 0 24 5 24 10 0 18 -55 10 -73 -10z"/>
<path d="M3545 100 c-4 -6 7 -10 27 -9 27 0 30 2 13 9 -27 12 -33 12 -40 0z"/>
<path d="M3755 100 c-19 -8 -19 -9 3 -9 12 -1 22 4 22 9 0 6 -1 10 -2 9 -2 0
-12 -4 -23 -9z"/>
<path d="M5045 99 c-16 -6 -14 -8 13 -8 33 -1 41 4 20 12 -7 2 -22 1 -33 -4z"/>
<path d="M4848 93 c6 -2 18 -2 25 0 6 3 1 5 -13 5 -14 0 -19 -2 -12 -5z"/>
<path d="M3653 73 c15 -2 37 -2 50 0 12 2 0 4 -28 4 -27 0 -38 -2 -22 -4z"/>
<path d="M4938 73 c12 -2 32 -2 45 0 12 2 2 4 -23 4 -25 0 -35 -2 -22 -4z"/>
<path d="M11163 9995 c-75 -21 -141 -56 -214 -115 -77 -61 -124 -117 -155
-185 -27 -59 -75 -285 -61 -285 5 0 20 -11 33 -26 14 -14 24 -19 24 -12 3 236
4 251 39 313 40 74 76 112 166 179 123 91 166 105 319 108 112 1 126 -1 180
-25 66 -31 165 -98 223 -154 48 -46 103 -135 102 -166 0 -14 -2 -16 -6 -7 -33
97 -90 166 -202 243 -128 89 -166 101 -299 99 -149 -3 -196 -21 -338 -128
-132 -100 -177 -197 -173 -381 3 -125 -6 -154 -30 -102 -18 39 -51 52 -51 21
0 -11 4 -22 10 -24 5 -1 11 -25 13 -52 3 -47 27 -80 27 -37 0 11 5 23 10 26
17 11 23 -25 9 -52 -12 -21 -11 -26 3 -34 19 -11 42 -64 35 -83 -3 -7 1 -24
10 -35 31 -45 5 -29 -54 32 -65 68 -82 103 -93 187 -6 43 -9 50 -15 33 -4 -13
-11 -23 -15 -23 -12 0 -4 -134 8 -138 7 -2 10 -7 7 -12 -7 -11 30 -41 53 -43
39 -3 91 -205 92 -357 0 -113 -53 -163 -315 -298 -184 -94 -205 -103 -342
-131 -196 -41 -327 -125 -423 -274 -67 -102 -80 -165 -80 -373 1 -117 6 -202
15 -244 8 -36 14 -89 15 -117 0 -64 -34 -226 -89 -427 -23 -82 -41 -154 -41
-159 0 -16 -57 -123 -99 -184 -109 -160 -169 -353 -211 -682 -12 -86 -25 -178
-30 -206 -32 -178 -46 -242 -71 -343 -42 -166 -57 -188 -198 -296 -95 -73
-131 -108 -201 -196 -19 -24 -55 -66 -79 -94 -76 -86 -88 -141 -46 -211 24
-41 43 -54 114 -72 19 -4 43 -20 53 -34 19 -26 19 -30 4 -137 -15 -102 -15
-145 0 -196 10 -31 74 -109 111 -134 37 -25 126 -52 174 -52 66 0 158 61 252
167 65 73 84 107 117 207 12 38 47 117 76 175 81 164 95 214 104 381 4 80 11
154 14 165 4 11 74 155 156 320 381 770 389 789 415 1012 17 153 41 228 70
228 41 0 56 -103 31 -222 -27 -129 -30 -205 -11 -325 17 -106 17 -119 1 -203
-9 -49 -25 -151 -36 -225 -11 -74 -28 -178 -37 -230 -24 -138 -31 -1004 -9
-1159 8 -58 18 -144 21 -191 7 -89 28 -229 64 -440 12 -69 29 -168 38 -220 8
-52 22 -126 30 -163 19 -84 12 -277 -18 -469 -25 -168 -25 -356 1 -540 12 -79
23 -165 25 -193 12 -129 30 -250 52 -355 13 -63 33 -167 44 -230 11 -63 31
-169 44 -235 14 -66 25 -148 25 -183 0 -74 -18 -98 -103 -137 -65 -30 -79 -42
-106 -85 -26 -43 -28 -127 -4 -178 21 -44 174 -205 259 -272 165 -132 336
-149 441 -44 75 75 82 127 57 427 -4 46 -2 114 6 165 9 68 9 101 0 152 -31
168 -1 560 60 780 16 58 33 137 39 175 6 39 15 100 21 136 14 94 12 230 -6
414 -19 181 -13 249 32 390 23 72 27 104 34 310 5 127 11 237 13 245 2 8 7 31
11 50 4 19 10 43 12 53 6 18 29 23 39 8 15 -25 26 -129 26 -246 0 -173 14
-325 40 -410 44 -151 52 -212 40 -315 -37 -306 -24 -522 50 -816 26 -105 55
-233 64 -284 19 -111 18 -291 -2 -435 -12 -83 -12 -120 -2 -217 10 -97 9 -131
-2 -195 -17 -94 -17 -223 -1 -278 34 -115 121 -179 242 -178 89 1 165 31 255
98 94 71 232 217 269 285 25 46 28 60 23 108 -8 72 -44 117 -128 159 -111 55
-124 87 -95 229 8 38 19 101 25 139 6 39 18 120 27 180 9 61 20 124 26 140 5
17 14 55 18 85 5 30 16 96 24 145 32 188 76 601 76 705 0 41 -5 104 -10 140
-6 36 -14 126 -20 200 -6 74 -13 169 -16 210 -3 42 -1 99 5 130 10 50 30 181
46 300 3 25 12 77 20 115 36 183 60 341 75 490 7 61 18 151 26 201 20 130 11
949 -12 1074 -8 47 -19 114 -24 150 -5 36 -16 110 -25 165 -23 139 -42 282
-39 297 1 7 7 53 14 102 13 96 9 193 -15 291 -29 121 -14 235 31 235 20 0 34
-40 50 -150 18 -120 52 -282 71 -340 8 -25 60 -137 115 -250 56 -113 126 -257
155 -320 74 -155 99 -205 171 -340 74 -139 92 -204 92 -330 0 -140 19 -211
101 -378 39 -81 78 -169 86 -197 23 -75 47 -118 106 -184 99 -110 191 -171
259 -171 45 0 133 25 166 46 35 23 46 37 82 108 29 58 30 63 30 205 0 167 6
186 68 197 70 12 118 57 127 118 9 56 -4 83 -82 179 -130 160 -186 217 -273
282 -132 97 -156 135 -195 307 -57 251 -72 331 -80 428 -27 330 -105 594 -234
795 -63 98 -84 146 -116 260 -15 55 -35 127 -46 160 -22 73 -68 254 -79 315
-9 48 -14 121 -29 405 -11 229 -33 300 -130 428 -58 77 -235 197 -292 197 -29
0 -194 47 -229 65 -19 10 -82 39 -140 65 -161 71 -274 150 -307 214 -13 26
-15 53 -9 172 8 192 34 264 110 309 47 28 55 178 12 232 -11 15 -21 32 -22 37
-1 6 -9 31 -18 56 -8 25 -27 83 -41 130 -15 47 -40 106 -57 133 -58 91 -205
207 -310 245 -61 22 -267 26 -335 7z m290 -84 c65 -15 215 -127 282 -211 26
-32 44 -85 50 -146 7 -66 -22 -378 -43 -454 -5 -20 -6 -78 -2 -130 4 -52 8
-79 10 -60 1 23 4 28 7 15 3 -11 0 -51 -7 -88 -11 -60 -10 -79 6 -149 17 -76
21 -82 69 -122 55 -47 145 -105 189 -124 16 -7 26 -15 23 -19 -4 -3 -13 0 -21
7 -9 6 -21 10 -28 7 -8 -4 -5 -8 10 -12 12 -4 22 -11 22 -16 0 -5 9 -9 21 -9
11 0 17 5 14 10 -8 12 0 13 23 1 70 -36 171 -81 179 -81 6 0 23 -6 38 -14 l27
-14 -23 -4 c-23 -4 -23 -5 -4 -13 11 -4 28 -15 37 -23 12 -10 28 -12 60 -6 42
8 43 8 13 15 l-30 7 36 1 c34 1 68 -7 133 -32 26 -9 27 -12 10 -18 -18 -7 -18
-7 0 -14 10 -5 21 -3 25 4 15 23 201 -129 201 -165 0 -4 6 -15 13 -23 8 -9 20
-31 27 -49 11 -28 11 -35 0 -42 -8 -5 -10 -15 -5 -26 8 -18 8 -18 13 0 6 29
32 -49 31 -94 l-2 -35 -7 35 c-4 20 -8 -41 -9 -147 -1 -116 3 -183 9 -183 6 0
11 57 12 148 l2 147 7 -145 c4 -80 9 -185 12 -235 3 -57 2 -67 -2 -25 -6 63
-6 64 -14 28 -4 -21 -12 -38 -17 -38 -15 0 -12 -44 5 -76 8 -16 15 -38 16 -49
0 -11 6 -2 13 20 l12 40 8 -50 c4 -27 11 -74 15 -103 4 -28 12 -57 19 -64 7
-7 12 -24 12 -39 0 -15 5 -31 10 -34 6 -3 10 -16 10 -28 0 -18 -2 -19 -10 -7
-7 11 -10 6 -10 -20 1 -33 2 -34 15 -16 14 19 15 19 15 1 0 -22 10 -57 60
-195 6 -19 15 -46 18 -60 3 -14 22 -52 44 -86 21 -34 38 -64 38 -68 0 -4 11
-22 25 -40 26 -34 32 -52 15 -41 -5 3 -10 -4 -10 -16 0 -17 3 -19 13 -10 14
11 19 5 55 -79 8 -19 19 -43 23 -52 11 -21 29 -92 35 -133 3 -25 2 -26 -5 -10
-8 16 -10 13 -10 -20 0 -34 1 -38 12 -23 12 15 14 14 24 -10 16 -41 35 -186
40 -297 2 -55 8 -109 13 -120 9 -18 22 -84 36 -170 3 -24 2 -26 -5 -10 -7 15
-10 8 -10 -32 -1 -53 18 -77 20 -25 1 22 3 20 11 -13 5 -22 12 -60 14 -85 3
-25 11 -58 19 -75 7 -16 23 -62 35 -102 23 -73 53 -112 125 -159 66 -42 181
-133 195 -154 8 -12 23 -31 33 -42 9 -12 17 -24 17 -28 0 -4 23 -29 50 -57 28
-28 50 -54 50 -59 0 -4 17 -28 38 -53 21 -25 41 -54 45 -63 8 -21 -36 -59 -67
-57 -20 1 -20 2 -1 6 39 9 40 23 1 23 -22 0 -35 -4 -31 -10 12 -19 -10 -10
-85 36 -87 52 -87 52 -71 -68 6 -45 11 -161 11 -258 l0 -178 -25 -16 c-13 -9
-31 -16 -40 -16 -8 0 -15 -4 -15 -8 0 -18 -47 -62 -65 -62 -17 0 -17 2 -5 10
12 8 9 10 -13 10 -19 0 -26 -4 -21 -12 5 -8 2 -9 -12 -3 -10 4 -35 10 -54 13
-41 5 -87 41 -68 53 10 7 10 11 0 21 -9 9 -12 9 -12 -1 0 -11 -3 -11 -15 -1
-8 7 -15 16 -15 21 0 5 7 6 15 3 16 -7 18 -1 9 34 -4 12 -13 22 -20 22 -8 0
-14 3 -14 8 0 4 -13 7 -30 7 -16 0 -30 -3 -30 -7 0 -5 11 -8 25 -8 14 0 29 -8
35 -20 11 -20 10 -20 -27 -3 -42 20 -72 50 -73 73 0 8 -7 24 -15 34 -8 11 -15
29 -14 40 1 18 2 17 9 -4 6 -22 8 -23 15 -7 4 9 4 29 0 45 -6 24 -8 25 -19 10
-12 -16 -14 -16 -24 8 -7 14 -12 36 -12 50 0 13 -12 43 -26 65 -53 85 -106
193 -95 197 14 5 14 39 1 47 -6 3 -10 -4 -11 -17 0 -19 -3 -17 -14 12 -9 24
-14 86 -14 190 l-1 155 -54 107 c-29 59 -50 105 -45 103 14 -9 22 16 9 28 -10
9 -14 9 -17 -1 -4 -10 -9 -8 -19 5 -7 10 -14 24 -14 31 0 7 -11 28 -24 45 -30
41 -56 95 -56 117 0 10 -7 23 -15 30 -8 7 -15 18 -15 25 0 7 -7 18 -15 25 -8
7 -15 18 -15 25 0 11 -18 55 -48 119 -3 5 0 6 7 2 7 -5 11 3 11 21 -1 25 -2
26 -14 11 -12 -16 -14 -15 -25 10 -32 68 -126 249 -139 266 -5 6 -17 37 -26
68 -10 32 -22 60 -27 64 -5 3 -9 15 -8 27 0 21 1 21 9 2 7 -16 9 -11 9 20 0
35 -1 38 -13 23 -12 -16 -14 -16 -24 8 -7 14 -12 41 -12 60 0 71 -31 283 -45
311 -8 15 -15 38 -15 50 0 12 -4 24 -9 27 -5 4 -12 24 -16 46 -4 22 -11 42
-16 46 -5 3 -9 20 -9 37 0 18 -7 41 -15 51 -8 11 -15 35 -15 53 0 68 -36 26
-47 -54 -3 -26 -10 -54 -16 -61 -6 -8 -14 -35 -18 -60 -15 -89 -27 -147 -38
-175 -14 -36 -14 -100 0 -114 24 -24 51 -361 31 -386 -20 -25 -24 -114 -8
-177 9 -34 16 -85 16 -114 0 -29 7 -75 15 -102 8 -27 14 -62 13 -79 -1 -26 -2
-25 -8 10 -6 34 -7 30 -8 -30 0 -65 1 -68 12 -41 l13 29 8 -29 c8 -34 20 -136
36 -331 9 -109 9 -230 0 -530 -7 -213 -16 -440 -20 -503 -9 -121 -35 -292 -48
-313 -4 -6 -11 -48 -15 -92 -13 -139 -25 -216 -37 -228 -6 -6 -11 -29 -11 -52
-1 -22 -5 -60 -11 -85 -33 -149 -38 -292 -19 -550 21 -287 12 -686 -19 -890
l-8 -55 -2 58 c0 31 -5 57 -11 57 -6 0 -10 -32 -9 -77 0 -53 3 -72 9 -58 8 19
9 19 9 -3 1 -12 -3 -30 -8 -40 -10 -18 -27 -118 -40 -233 -9 -80 -19 -99 -37
-74 -11 15 -13 13 -19 -19 -4 -20 -4 -48 1 -63 l8 -28 6 35 c4 19 8 26 9 15 1
-11 -5 -51 -13 -90 -9 -38 -20 -110 -26 -160 -6 -49 -16 -112 -21 -140 -21
-103 -22 -126 -3 -160 19 -36 50 -55 89 -55 14 0 25 -4 25 -10 0 -5 11 -10 24
-10 14 0 37 -10 53 -23 15 -13 36 -26 46 -30 13 -5 17 -18 17 -61 0 -30 -3
-56 -7 -58 -5 -2 -37 -37 -73 -78 -94 -108 -90 -105 -91 -83 0 10 -3 13 -6 6
-2 -7 -11 -13 -18 -13 -7 0 -15 -7 -19 -15 -3 -8 -1 -15 3 -15 5 0 11 6 14 13
2 6 7 9 11 5 10 -8 -77 -88 -149 -137 -58 -40 -146 -68 -130 -41 4 6 -13 10
-45 10 -32 0 -49 -4 -45 -10 8 -14 -8 -13 -42 2 -37 17 -57 36 -77 75 -22 44
-23 245 -1 287 20 37 20 172 0 206 -19 33 -19 137 0 190 12 33 15 92 15 256 0
157 -4 228 -15 271 -8 31 -15 74 -15 95 0 20 -4 40 -10 43 -5 3 -10 13 -10 21
0 8 5 12 10 9 6 -4 10 8 10 29 0 42 -19 49 -21 9 -1 -21 -2 -23 -6 -8 -3 11
-9 25 -14 31 -11 13 -27 85 -39 174 -4 36 -13 85 -20 110 -16 59 -15 305 1
400 21 130 23 304 3 358 -10 26 -21 52 -25 57 -17 22 -32 105 -41 225 -11 149
-11 129 -2 217 5 52 2 94 -10 155 -10 46 -16 101 -14 123 4 33 5 30 6 -18 1
-36 6 -56 12 -52 12 7 13 82 3 140 l-7 40 -6 -35 -7 -35 -12 30 c-7 17 -15 62
-17 100 -3 39 -9 93 -15 120 -8 42 -23 286 -34 550 -2 66 -2 66 4 15 l7 -55 4
70 c7 97 1 197 -10 190 -6 -4 -11 -21 -11 -38 l-2 -32 -6 35 c-7 34 -8 33 -14
-20 -20 -175 -27 -294 -28 -450 0 -96 -5 -197 -10 -225 -6 -27 -14 -88 -19
-135 -5 -47 -12 -96 -16 -110 -3 -14 -10 -68 -15 -120 -5 -52 -13 -115 -18
-140 l-8 -45 -2 48 c0 26 -5 47 -11 47 -6 0 -9 -77 -9 -212 1 -121 5 -196 9
-173 l7 40 2 -42 c1 -52 -12 -114 -46 -213 -35 -99 -42 -253 -17 -373 23 -112
24 -370 2 -447 -15 -50 -27 -113 -44 -227 -3 -24 -10 -45 -15 -49 -5 -3 -9
-14 -9 -26 0 -11 -6 -34 -14 -51 -41 -93 -60 -538 -30 -685 16 -79 16 -91 -11
-257 l-14 -90 6 92 c3 58 1 93 -5 93 -5 0 -12 -14 -16 -31 -8 -40 -8 -172 0
-193 8 -21 24 -10 25 17 0 17 4 14 14 -13 8 -21 14 -78 14 -145 1 -118 -14
-181 -49 -203 -16 -10 -18 -9 -14 2 3 8 12 17 20 20 14 5 20 46 7 46 -5 0 -16
-14 -25 -30 -9 -17 -25 -30 -35 -30 -17 -1 -17 -2 1 -15 11 -8 17 -15 14 -15
-4 0 -14 -3 -24 -7 -12 -4 -15 -3 -10 5 5 9 -12 12 -64 12 -45 0 -69 -4 -65
-10 20 -32 -90 16 -154 67 -25 20 -84 75 -131 122 -145 147 -170 181 -170 233
0 30 6 41 27 55 15 10 36 26 45 35 10 10 28 18 41 18 13 0 27 3 31 7 4 5 28
15 54 23 39 12 50 22 66 55 16 34 17 46 7 85 -6 25 -16 86 -22 135 -20 172
-27 220 -38 255 -6 19 -11 51 -11 70 0 20 -5 41 -11 47 -11 11 -23 74 -38 205
-5 43 -13 82 -16 88 -10 16 -35 190 -48 330 -20 222 -10 695 19 908 7 52 -5
175 -27 274 -6 26 -14 80 -19 120 -10 78 -26 164 -41 214 -5 17 -9 50 -9 75
-1 24 -7 71 -15 104 -8 33 -15 83 -15 110 0 28 -5 56 -12 63 -11 11 -23 141
-32 347 -3 66 -2 85 3 55 5 -25 8 158 9 405 0 248 -3 439 -7 425 -4 -14 -9
-194 -10 -399 -1 -206 -4 -377 -6 -380 -9 -9 -3 745 6 799 6 30 14 89 18 131
5 42 14 85 20 97 6 11 11 40 11 64 0 24 7 70 15 103 8 33 14 81 15 108 0 26 4
55 9 65 29 56 29 171 0 228 -21 42 4 357 32 390 11 13 8 65 -6 129 -5 23 -4
26 4 15 8 -11 11 -2 11 38 0 59 -19 73 -21 15 l-1 -38 -10 35 c-5 19 -13 51
-17 70 -25 103 -34 138 -43 165 -6 17 -13 47 -15 68 -5 40 -23 51 -23 15 0
-13 -6 -41 -14 -62 l-13 -39 -10 29 -10 29 -7 -42 c-9 -48 4 -83 15 -43 7 25
7 25 8 2 1 -13 -4 -33 -11 -45 -6 -12 -15 -40 -19 -62 -12 -65 -29 -128 -38
-140 -5 -5 -12 -31 -15 -57 -4 -26 -11 -50 -17 -53 -5 -4 -9 -52 -9 -108 0
-95 -13 -167 -39 -213 -25 -48 -41 -89 -41 -110 0 -13 -4 -25 -9 -28 -9 -6
-30 -43 -83 -148 -16 -32 -34 -60 -39 -63 -5 -4 -9 -13 -9 -22 0 -9 -17 -52
-38 -97 -21 -44 -44 -94 -51 -110 -10 -24 -14 -27 -21 -16 -13 21 -35 -3 -26
-27 6 -15 9 -15 17 -3 6 8 9 11 7 5 -6 -17 -49 -109 -59 -125 -5 -8 -13 -25
-19 -37 -5 -13 -14 -23 -20 -23 -5 0 -10 -5 -10 -10 0 -17 -59 -138 -70 -145
-5 -3 -10 -14 -10 -23 0 -9 -7 -26 -16 -37 -12 -16 -17 -17 -23 -7 -7 11 -10
10 -15 -3 -8 -22 4 -41 15 -24 7 11 9 11 9 -1 0 -9 -6 -22 -12 -28 -9 -9 -15
-65 -19 -170 -6 -159 -17 -234 -38 -255 -6 -6 -11 -19 -11 -28 0 -9 -7 -22
-15 -29 -8 -7 -15 -19 -15 -27 0 -9 -18 -42 -40 -75 -22 -33 -40 -69 -40 -79
0 -11 -7 -36 -16 -57 -14 -32 -17 -34 -23 -17 -7 17 -8 16 -15 -8 -8 -34 4
-60 15 -31 7 18 8 17 8 -3 1 -12 -3 -24 -8 -28 -5 -3 -12 -18 -16 -33 -8 -37
-33 -65 -73 -81 -20 -8 -38 -27 -48 -47 -23 -48 -69 -84 -108 -84 -17 0 -38
-6 -45 -13 -11 -9 -14 -9 -18 1 -3 6 -12 12 -22 12 -9 0 -23 6 -30 12 -10 11
-11 10 -6 -3 3 -9 16 -22 28 -28 21 -11 21 -11 -3 -5 -24 6 -70 49 -70 66 0 4
-7 8 -15 8 -51 0 -87 62 -81 140 2 25 8 115 14 200 6 86 14 175 18 198 8 50
-2 53 -49 18 -33 -25 -103 -66 -113 -66 -3 0 -2 5 1 10 4 6 -9 10 -31 10 -39
0 -38 -14 1 -23 18 -4 18 -5 -2 -6 -12 0 -34 10 -49 23 l-28 23 19 29 c10 16
29 40 42 54 13 14 23 28 23 32 0 4 21 32 48 61 73 83 92 106 92 116 0 17 114
112 128 106 7 -2 11 -1 8 3 -2 4 12 18 31 32 95 68 141 112 153 142 7 18 19
47 25 63 18 43 36 112 45 175 4 30 12 69 18 85 l10 30 1 -27 c1 -15 5 -29 10
-32 10 -7 20 60 13 88 -5 20 -5 20 -14 0 -9 -22 -6 5 18 131 8 44 19 125 23
180 10 118 28 238 43 280 6 17 13 48 15 70 3 22 9 44 14 50 5 5 9 18 9 28 0
10 6 31 13 45 8 15 21 42 30 60 9 19 17 40 17 48 0 12 55 111 69 124 12 10 79
141 106 205 13 32 31 94 45 160 17 78 28 111 29 88 2 -35 18 -36 24 0 6 41 -3
69 -14 41 -7 -18 -8 -18 -8 2 -1 11 3 24 8 30 5 5 11 18 14 29 3 15 5 13 6 -8
2 -42 21 -22 21 21 0 29 -3 34 -11 22 -8 -11 -9 -6 -3 20 12 64 16 303 5 341
-31 103 -31 403 -1 433 6 6 10 22 10 37 0 15 7 32 15 39 8 7 15 19 15 27 0 25
162 178 215 202 32 15 51 19 53 12 5 -14 49 -15 57 -1 4 6 -6 10 -22 11 -27 1
-26 2 7 11 49 13 107 26 160 37 25 5 56 12 70 15 21 5 20 4 -5 -8 -16 -9 -41
-16 -55 -16 -22 -2 -20 -3 9 -12 28 -7 42 -6 73 9 41 19 49 33 21 34 -10 0 2
10 27 23 25 13 65 35 90 49 25 15 53 27 62 27 9 0 18 4 20 8 2 5 29 21 61 36
68 32 120 65 200 125 l57 43 0 172 c-1 123 -5 182 -15 211 -17 47 -18 56 -5
35 7 -12 12 -12 22 -2 12 12 5 98 -22 242 -6 30 -12 118 -13 195 -2 117 1 146
16 174 9 19 17 39 17 46 0 33 205 195 280 222 40 14 236 17 293 4z m385 -434
l-4 -58 27 6 c39 9 69 -45 69 -123 0 -54 -9 -77 -45 -119 -29 -35 -35 -43 -35
-49 0 -3 -13 -23 -28 -43 -33 -43 -50 -77 -55 -111 -3 -19 -5 -17 -6 9 0 20 9
51 23 76 17 28 22 46 15 56 -13 21 -12 26 16 53 26 26 32 46 15 46 -5 0 -10
11 -10 25 0 18 5 25 20 25 13 0 21 7 22 20 0 11 1 26 2 32 1 7 -8 13 -19 13
-19 0 -20 7 -22 135 -1 105 1 127 9 100 5 -19 8 -61 6 -93z m522 -1187 c13 -8
13 -10 -2 -10 -9 0 -20 5 -23 10 -8 13 5 13 25 0z m-1140 -5110 l-4 -55 -6 67
c-3 37 -3 93 0 125 l5 58 5 -70 c3 -38 3 -95 0 -125z m-317 -2937 c-13 -2 -35
-2 -50 0 -16 2 -5 4 22 4 28 0 40 -2 28 -4z m900 0 c-7 -2 -19 -2 -25 0 -7 3
-2 5 12 5 14 0 19 -2 13 -5z"/>
<path d="M10891 8790 l-1 -204 22 21 c20 21 21 24 6 40 -13 14 -16 34 -12 93
2 41 0 116 -5 165 -7 80 -8 66 -10 -115z"/>
<path d="M11716 8807 c-4 -35 -3 -73 3 -87 8 -20 10 -6 10 63 1 48 -1 87 -3
87 -2 0 -7 -28 -10 -63z"/>
<path d="M11722 8656 c-22 -12 -22 -13 32 -62 52 -47 89 -74 102 -74 4 0 -9
12 -28 28 -53 42 -68 59 -68 79 0 33 -13 43 -38 29z"/>
<path d="M10845 8570 c-3 -6 1 -7 9 -4 18 7 21 14 7 14 -6 0 -13 -4 -16 -10z"/>
<path d="M10810 8541 c0 -5 -8 -12 -17 -14 -15 -4 -15 -5 -2 -6 9 0 22 6 29
14 9 10 9 15 1 15 -6 0 -11 -4 -11 -9z"/>
<path d="M10750 8500 c0 -5 7 -7 15 -4 8 4 15 8 15 10 0 2 -7 4 -15 4 -8 0
-15 -4 -15 -10z"/>
<path d="M11890 8490 c14 -11 30 -20 35 -20 6 0 -1 9 -15 20 -14 11 -29 20
-35 20 -5 0 1 -9 15 -20z"/>
<path d="M10715 8479 c-4 -6 -17 -14 -29 -19 l-21 -9 23 0 c12 -1 22 4 22 9 0
6 7 10 15 10 8 0 15 5 15 10 0 13 -17 13 -25 -1z"/>
<path d="M11938 8453 c6 -2 18 -2 25 0 6 3 1 5 -13 5 -14 0 -19 -2 -12 -5z"/>
<path d="M10600 8420 c-20 -16 -22 -20 -7 -20 9 0 17 5 17 10 0 6 9 10 19 10
11 0 23 5 26 10 11 18 -29 10 -55 -10z"/>
<path d="M10528 8383 c6 -2 18 -2 25 0 6 3 1 5 -13 5 -14 0 -19 -2 -12 -5z"/>
<path d="M12083 8383 c9 -2 23 -2 30 0 6 3 -1 5 -18 5 -16 0 -22 -2 -12 -5z"/>
<path d="M10460 8350 c-20 -16 -22 -20 -7 -20 9 0 17 5 17 10 0 6 6 10 14 10
8 0 18 5 21 10 11 17 -19 11 -45 -10z"/>
<path d="M12130 8360 c0 -5 9 -10 19 -10 11 0 23 -4 26 -10 3 -5 14 -10 23
-10 11 0 5 7 -16 20 -36 22 -52 25 -52 10z"/>
<path d="M10398 8313 c7 -3 16 -2 19 1 4 3 -2 6 -13 5 -11 0 -14 -3 -6 -6z"/>
<path d="M12243 8313 c9 -2 23 -2 30 0 6 3 -1 5 -18 5 -16 0 -22 -2 -12 -5z"/>
<path d="M10143 8243 c9 -2 25 -2 35 0 9 3 1 5 -18 5 -19 0 -27 -2 -17 -5z"/>
<path d="M12498 8243 c6 -2 18 -2 25 0 6 3 1 5 -13 5 -14 0 -19 -2 -12 -5z"/>
<path d="M10000 8200 c-12 -8 -10 -10 8 -10 13 0 20 4 17 10 -7 12 -6 12 -25
0z"/>
<path d="M12600 8193 c8 -3 23 -14 34 -25 23 -21 38 -24 31 -5 -6 13 -52 38
-69 36 -6 0 -4 -3 4 -6z"/>
<path d="M9936 8159 c-25 -25 -8 -24 24 1 16 13 20 19 10 19 -8 0 -24 -9 -34
-20z"/>
<path d="M11332 7286 c-1 -473 0 -857 2 -855 7 8 13 1586 6 1649 -4 36 -8
-322 -8 -794z"/>
<path d="M12692 8121 c7 -12 18 -21 25 -21 7 0 13 -5 13 -12 0 -6 3 -8 6 -5 8
8 -13 35 -38 48 -17 9 -18 8 -6 -10z"/>
<path d="M9870 8100 c0 -5 5 -10 10 -10 6 0 10 5 10 10 0 6 -4 10 -10 10 -5 0
-10 -4 -10 -10z"/>
<path d="M9846 8081 c-4 -7 -5 -15 -2 -18 9 -9 19 4 14 18 -4 11 -6 11 -12 0z"/>
<path d="M12760 8039 c0 -11 4 -18 10 -14 5 3 7 12 3 20 -7 21 -13 19 -13 -6z"/>
<path d="M9807 8030 c-9 -11 -17 -30 -16 -43 0 -21 1 -21 12 3 6 14 15 28 20
31 5 4 8 12 6 18 -3 7 -11 3 -22 -9z"/>
<path d="M12780 8008 c0 -7 5 -20 10 -28 8 -12 10 -9 10 13 0 15 -4 27 -10 27
-5 0 -10 -6 -10 -12z"/>
<path d="M9767 7964 c-4 -4 -7 -14 -7 -23 0 -11 3 -12 11 -4 6 6 10 16 7 23
-2 6 -7 8 -11 4z"/>
<path d="M11877 7908 c-8 -29 -9 -86 -1 -115 11 -41 24 -13 24 50 0 69 -13
104 -23 65z"/>
<path d="M9736 7864 c-9 -24 -6 -296 4 -319 5 -12 8 52 8 158 1 97 -1 177 -3
177 -1 0 -6 -7 -9 -16z"/>
<path d="M10777 7855 c-4 -8 -2 -17 3 -20 6 -4 10 3 10 14 0 25 -6 27 -13 6z"/>
<path d="M10750 7748 c0 -38 3 -49 10 -38 13 20 13 77 0 85 -6 4 -10 -14 -10
-47z"/>
<path d="M11906 7737 c-5 -9 -5 -34 0 -55 7 -34 8 -35 12 -9 2 15 2 39 0 55
-4 22 -6 24 -12 9z"/>
<path d="M10720 7643 c-1 -27 -7 -59 -15 -73 -18 -32 -20 -113 -2 -108 19 7
47 228 28 228 -6 0 -11 -19 -11 -47z"/>
<path d="M11930 7576 c0 -36 4 -67 9 -70 4 -3 11 -19 14 -36 9 -45 30 -38 24
8 -13 86 -31 162 -39 162 -4 0 -8 -29 -8 -64z"/>
<path d="M10200 7548 c0 -16 5 -28 10 -28 13 0 13 20 0 40 -8 12 -10 9 -10
-12z"/>
<path d="M12432 7510 c0 -19 2 -27 5 -17 2 9 2 25 0 35 -3 9 -5 1 -5 -18z"/>
<path d="M10229 7490 c-3 -8 -2 -31 1 -50 5 -28 8 -31 15 -17 4 10 3 32 -2 50
-6 20 -11 27 -14 17z"/>
<path d="M12400 7428 c0 -32 3 -39 10 -28 13 20 13 70 0 70 -5 0 -10 -19 -10
-42z"/>
<path d="M10670 7444 c0 -8 5 -12 10 -9 6 4 8 11 5 16 -9 14 -15 11 -15 -7z"/>
<path d="M9761 7310 c0 -97 3 -128 10 -111 5 14 9 41 7 62 -1 23 4 43 15 54
21 21 22 51 2 63 -9 4 -20 21 -24 38 -7 20 -9 -12 -10 -106z"/>
<path d="M10251 7353 c1 -21 5 -49 9 -63 6 -19 8 -9 9 38 1 35 -3 62 -9 62 -5
0 -10 -17 -9 -37z"/>
<path d="M12376 7299 c-4 -32 -3 -56 3 -62 8 -8 11 8 11 51 0 34 -2 62 -4 62
-2 0 -6 -23 -10 -51z"/>
<path d="M12903 7150 c0 -30 2 -43 4 -27 2 15 2 39 0 55 -2 15 -4 2 -4 -28z"/>
<path d="M10275 7053 c-3 -21 -10 -62 -15 -92 -12 -68 -12 -81 -1 -81 6 0 11
15 13 32 2 22 9 34 21 36 14 3 17 -4 17 -42 0 -25 5 -46 10 -46 12 0 13 87 1
94 -4 3 -11 33 -15 65 -8 71 -23 87 -31 34z"/>
<path d="M12920 7051 c0 -16 5 -33 10 -36 6 -4 10 6 10 24 0 16 -4 33 -10 36
-6 4 -10 -6 -10 -24z"/>
<path d="M12346 7017 c-9 -34 -7 -115 3 -122 17 -10 41 38 41 82 0 31 -5 45
-19 52 -15 9 -20 7 -25 -12z"/>
<path d="M9683 6875 c0 -22 2 -30 4 -17 2 12 2 30 0 40 -3 9 -5 -1 -4 -23z"/>
<path d="M12400 6868 c0 -20 5 -40 10 -43 13 -8 13 45 0 65 -7 11 -10 6 -10
-22z"/>
<path d="M12321 6820 l1 -65 10 54 c7 37 7 56 -1 64 -8 8 -11 -7 -10 -53z"/>
<path d="M12983 6845 c0 -22 2 -30 4 -17 2 12 2 30 0 40 -3 9 -5 -1 -4 -23z"/>
<path d="M10343 6800 c0 -25 2 -35 4 -22 2 12 2 32 0 45 -2 12 -4 2 -4 -23z"/>
<path d="M12433 6770 c0 -25 2 -35 4 -22 2 12 2 32 0 45 -2 12 -4 2 -4 -23z"/>
<path d="M9650 6764 c0 -21 4 -33 10 -29 6 3 10 19 10 36 0 16 -4 29 -10 29
-5 0 -10 -16 -10 -36z"/>
<path d="M13000 6773 c0 -16 5 -35 10 -43 7 -11 10 -4 10 28 0 23 -4 42 -10
42 -5 0 -10 -12 -10 -27z"/>
<path d="M12293 6695 c0 -22 2 -30 4 -17 2 12 2 30 0 40 -3 9 -5 -1 -4 -23z"/>
<path d="M9628 6714 c-5 -4 -8 -15 -8 -25 0 -19 -31 -82 -42 -87 -5 -2 -8 -13
-8 -25 1 -20 2 -21 14 -4 7 9 18 17 23 17 17 0 35 54 31 95 -2 20 -6 33 -10
29z"/>
<path d="M10202 6690 c0 -19 2 -27 5 -17 2 9 2 25 0 35 -3 9 -5 1 -5 -18z"/>
<path d="M10373 6675 c0 -22 2 -30 4 -17 2 12 2 30 0 40 -3 9 -5 -1 -4 -23z"/>
<path d="M13030 6670 c0 -49 15 -81 34 -74 9 3 17 -3 21 -15 3 -12 11 -19 16
-15 7 4 5 12 -3 22 -22 28 -48 79 -48 95 0 9 -4 19 -10 22 -6 4 -10 -10 -10
-35z"/>
<path d="M12457 6688 c-2 -7 -1 -22 4 -33 6 -16 8 -14 8 13 1 33 -4 41 -12 20z"/>
<path d="M12268 6624 c-5 -4 -8 -25 -8 -48 0 -28 3 -37 11 -29 6 6 9 27 7 48
-2 20 -6 33 -10 29z"/>
<path d="M12480 6601 c0 -16 5 -33 10 -36 6 -4 10 6 10 24 0 16 -4 33 -10 36
-6 4 -10 -6 -10 -24z"/>
<path d="M10170 6589 c0 -17 4 -28 10 -24 6 3 10 17 10 31 0 13 -4 24 -10 24
-5 0 -10 -14 -10 -31z"/>
<path d="M9540 6534 c0 -8 5 -12 10 -9 6 3 10 10 10 16 0 5 -4 9 -10 9 -5 0
-10 -7 -10 -16z"/>
<path d="M10146 6534 c-9 -25 -7 -64 4 -64 6 0 10 18 10 40 0 43 -4 50 -14 24z"/>
<path d="M13122 6530 c0 -14 2 -19 5 -12 2 6 2 18 0 25 -3 6 -5 1 -5 -13z"/>
<path d="M12510 6510 c0 -18 4 -29 10 -25 6 3 10 15 10 25 0 10 -4 22 -10 25
-6 4 -10 -7 -10 -25z"/>
<path d="M12238 6478 c-3 -29 -2 -62 3 -73 5 -13 8 5 8 53 1 39 -1 72 -3 72
-2 0 -6 -24 -8 -52z"/>
<path d="M9502 6473 c-25 -30 -27 -39 -12 -48 6 -3 10 1 10 11 0 9 7 22 16 29
9 6 15 17 13 24 -3 7 -13 1 -27 -16z"/>
<path d="M13140 6486 c0 -8 5 -18 10 -21 6 -3 10 3 10 14 0 12 -4 21 -10 21
-5 0 -10 -6 -10 -14z"/>
<path d="M10423 6445 c0 -22 2 -30 4 -17 2 12 2 30 0 40 -3 9 -5 -1 -4 -23z"/>
<path d="M9462 6385 c0 -16 2 -22 5 -12 2 9 2 23 0 30 -3 6 -5 -1 -5 -18z"/>
<path d="M10124 6305 c0 -55 1 -76 3 -47 2 29 2 74 0 100 -2 26 -3 2 -3 -53z"/>
<path d="M13202 6375 c0 -16 2 -22 5 -12 2 9 2 23 0 30 -3 6 -5 -1 -5 -18z"/>
<path d="M12541 6364 c0 -11 3 -14 6 -6 3 7 2 16 -1 19 -3 4 -6 -2 -5 -13z"/>
<path d="M10398 6357 c-13 -30 -10 -113 3 -100 5 5 9 34 7 64 -2 36 -6 48 -10
36z"/>
<path d="M12260 6323 c0 -26 5 -55 10 -63 7 -11 10 1 10 42 0 31 -4 60 -10 63
-6 4 -10 -12 -10 -42z"/>
<path d="M12730 6350 c0 -5 5 -10 11 -10 5 0 7 5 4 10 -3 6 -8 10 -11 10 -2 0
-4 -4 -4 -10z"/>
<path d="M9900 6325 c0 -14 -7 -28 -15 -31 -8 -4 -15 -12 -15 -20 0 -8 -8 -14
-17 -15 -10 0 -13 -3 -6 -5 23 -10 61 26 65 61 2 19 0 35 -4 35 -4 0 -8 -11
-8 -25z"/>
<path d="M9430 6315 c0 -15 4 -24 10 -20 6 3 10 12 10 20 0 8 -4 17 -10 20 -6
4 -10 -5 -10 -20z"/>
<path d="M12541 6266 c-1 -50 3 -76 8 -70 6 5 7 37 2 79 l-8 70 -2 -79z"/>
<path d="M13220 6323 c0 -10 5 -25 10 -33 7 -11 10 -7 10 18 0 17 -4 32 -10
32 -5 0 -10 -8 -10 -17z"/>
<path d="M12756 6311 c-9 -14 2 -35 25 -49 29 -18 30 -12 3 26 -12 18 -25 28
-28 23z"/>
<path d="M9407 6273 c-11 -10 -8 -53 3 -53 6 0 10 14 10 30 0 31 -2 35 -13 23z"/>
<path d="M13250 6251 c0 -11 5 -23 10 -26 6 -3 10 3 10 14 0 11 -4 23 -10 26
-5 3 -10 -3 -10 -14z"/>
<path d="M10374 6130 c0 -58 1 -81 3 -52 2 28 2 76 0 105 -2 28 -3 5 -3 -53z"/>
<path d="M9383 6155 c0 -22 2 -30 4 -17 2 12 2 30 0 40 -3 9 -5 -1 -4 -23z"/>
<path d="M12293 6120 c0 -41 2 -58 4 -37 2 20 2 54 0 75 -2 20 -4 3 -4 -38z"/>
<path d="M10090 6149 c0 -17 4 -28 10 -24 6 3 10 17 10 31 0 13 -4 24 -10 24
-5 0 -10 -14 -10 -31z"/>
<path d="M10060 6079 c0 -11 5 -17 10 -14 6 3 10 13 10 21 0 8 -4 14 -10 14
-5 0 -10 -9 -10 -21z"/>
<path d="M12596 6082 c-2 -4 -1 -14 5 -22 7 -12 9 -10 9 8 0 23 -5 28 -14 14z"/>
<path d="M9348 6030 c-3 -28 -2 -66 2 -83 6 -27 8 -20 14 41 5 46 4 78 -2 84
-6 6 -11 -9 -14 -42z"/>
<path d="M13309 6070 c-4 -8 -4 -44 0 -80 4 -36 9 -56 11 -45 7 28 -4 143 -11
125z"/>
<path d="M10037 6010 c-3 -11 -1 -23 4 -26 5 -3 9 6 9 20 0 31 -6 34 -13 6z"/>
<path d="M12620 6001 c0 -11 5 -23 10 -26 6 -3 10 3 10 14 0 11 -4 23 -10 26
-5 3 -10 -3 -10 -14z"/>
<path d="M10391 5988 c0 -13 9 -41 19 -63 l18 -40 7 29 c6 22 4 31 -9 38 -9 5
-16 20 -16 33 0 14 -4 25 -10 25 -5 0 -10 -10 -9 -22z"/>
<path d="M12268 6004 c-5 -4 -8 -16 -8 -27 0 -11 -8 -25 -17 -32 -14 -10 -15
-17 -6 -36 10 -24 11 -23 27 16 16 38 19 95 4 79z"/>
<path d="M10006 5953 c-4 -9 -3 -20 2 -25 6 -6 12 -1 15 11 6 25 -8 38 -17 14z"/>
<path d="M12650 5943 c0 -21 3 -24 9 -14 5 8 7 20 4 28 -8 21 -13 15 -13 -14z"/>
<path d="M11710 5925 c0 -8 5 -15 10 -15 6 0 10 7 10 15 0 8 -4 15 -10 15 -5
0 -10 -7 -10 -15z"/>
<path d="M9980 5895 c0 -8 2 -15 4 -15 2 0 6 7 10 15 3 8 1 15 -4 15 -6 0 -10
-7 -10 -15z"/>
<path d="M12682 5890 c0 -14 2 -19 5 -12 2 6 2 18 0 25 -3 6 -5 1 -5 -13z"/>
<path d="M9328 5894 c-5 -4 -8 -44 -7 -88 1 -69 2 -76 10 -48 11 38 8 148 -3
136z"/>
<path d="M12260 5846 c0 -19 5 -38 10 -41 6 -4 10 8 10 29 0 19 -4 38 -10 41
-6 4 -10 -8 -10 -29z"/>
<path d="M13344 5790 c0 -52 1 -74 3 -47 2 26 2 68 0 95 -2 26 -3 4 -3 -48z"/>
<path d="M9954 5845 c-4 -11 -13 -24 -21 -28 -15 -9 -18 -37 -3 -37 6 0 10 5
10 12 0 6 7 19 16 29 9 10 14 24 11 31 -3 9 -7 7 -13 -7z"/>
<path d="M10398 5854 c-5 -4 -8 -25 -8 -48 0 -28 3 -37 11 -29 6 6 9 27 7 48
-2 20 -6 33 -10 29z"/>
<path d="M12700 5846 c0 -8 5 -18 10 -21 6 -3 10 3 10 14 0 12 -4 21 -10 21
-5 0 -10 -6 -10 -14z"/>
<path d="M12730 5790 c0 -19 3 -21 12 -12 9 9 9 15 0 24 -9 9 -12 7 -12 -12z"/>
<path d="M9902 5735 c0 -16 2 -22 5 -12 2 9 2 23 0 30 -3 6 -5 -1 -5 -18z"/>
<path d="M12293 5695 c0 -38 2 -53 4 -32 2 20 2 52 0 70 -2 17 -4 1 -4 -38z"/>
<path d="M10373 5685 c0 -38 2 -53 4 -32 2 20 2 52 0 70 -2 17 -4 1 -4 -38z"/>
<path d="M12760 5730 c0 -11 4 -20 9 -20 5 0 7 9 4 20 -3 11 -7 20 -9 20 -2 0
-4 -9 -4 -20z"/>
<path d="M9870 5669 c0 -11 5 -17 10 -14 6 3 10 13 10 21 0 8 -4 14 -10 14 -5
0 -10 -9 -10 -21z"/>
<path d="M9302 5650 c-1 -8 -5 -33 -8 -55 -5 -31 -4 -37 5 -29 7 7 11 29 8 55
-2 24 -4 37 -5 29z"/>
<path d="M9845 5627 c-4 -10 -5 -21 -1 -24 10 -10 18 4 13 24 -4 17 -4 17 -12
0z"/>
<path d="M13360 5596 c0 -25 5 -48 10 -51 6 -4 10 11 10 39 0 25 -4 48 -10 51
-6 4 -10 -11 -10 -39z"/>
<path d="M12816 5622 c-2 -4 -1 -14 5 -22 7 -12 9 -10 9 8 0 23 -5 28 -14 14z"/>
<path d="M9822 5560 c0 -14 2 -19 5 -12 2 6 2 18 0 25 -3 6 -5 1 -5 -13z"/>
<path d="M12840 5546 c0 -14 4 -26 9 -26 5 0 14 -12 19 -27 9 -25 10 -26 17
-9 6 13 3 23 -8 31 -10 7 -17 19 -17 28 0 9 -4 19 -10 22 -6 4 -10 -5 -10 -19z"/>
<path d="M10343 5490 c0 -41 2 -58 4 -37 2 20 2 54 0 75 -2 20 -4 3 -4 -38z"/>
<path d="M9762 5440 c0 -14 2 -19 5 -12 2 6 2 18 0 25 -3 6 -5 1 -5 -13z"/>
<path d="M12902 5430 c0 -14 2 -19 5 -12 2 6 2 18 0 25 -3 6 -5 1 -5 -13z"/>
<path d="M12341 5373 c1 -93 17 -111 18 -20 1 45 -3 77 -9 77 -6 0 -10 -25 -9
-57z"/>
<path d="M9243 5355 c0 -27 2 -38 4 -22 2 15 2 37 0 50 -2 12 -4 0 -4 -28z"/>
<path d="M9735 5387 c-4 -10 -5 -21 -1 -24 10 -10 18 4 13 24 -4 17 -4 17 -12
0z"/>
<path d="M10318 5394 c-5 -4 -8 -39 -8 -78 1 -53 3 -67 11 -54 11 20 8 144 -3
132z"/>
<path d="M12920 5376 c0 -8 5 -18 10 -21 6 -3 10 3 10 14 0 12 -4 21 -10 21
-5 0 -10 -6 -10 -14z"/>
<path d="M13423 5330 c0 -30 2 -43 4 -27 2 15 2 39 0 55 -2 15 -4 2 -4 -28z"/>
<path d="M11332 5350 c0 -14 2 -19 5 -12 2 6 2 18 0 25 -3 6 -5 1 -5 -13z"/>
<path d="M9700 5330 c0 -11 5 -20 10 -20 6 0 10 9 10 20 0 11 -4 20 -10 20 -5
0 -10 -9 -10 -20z"/>
<path d="M12950 5331 c0 -12 5 -21 10 -21 6 0 10 6 10 14 0 8 -4 18 -10 21 -5
3 -10 -3 -10 -14z"/>
<path d="M9681 5284 c0 -11 3 -14 6 -6 3 7 2 16 -1 19 -3 4 -6 -2 -5 -13z"/>
<path d="M12981 5274 c0 -11 3 -14 6 -6 3 7 2 16 -1 19 -3 4 -6 -2 -5 -13z"/>
<path d="M9210 5219 c0 -17 4 -28 10 -24 6 3 10 17 10 31 0 13 -4 24 -10 24
-5 0 -10 -14 -10 -31z"/>
<path d="M13440 5221 c0 -17 5 -33 10 -36 6 -4 10 8 10 29 0 20 -4 36 -10 36
-5 0 -10 -13 -10 -29z"/>
<path d="M9650 5224 c0 -8 5 -12 10 -9 6 3 10 10 10 16 0 5 -4 9 -10 9 -5 0
-10 -7 -10 -16z"/>
<path d="M9620 5179 c0 -11 5 -17 10 -14 6 3 10 13 10 21 0 8 -4 14 -10 14 -5
0 -10 -9 -10 -21z"/>
<path d="M13030 5183 c0 -5 5 -15 10 -23 8 -12 10 -11 10 8 0 12 -4 22 -10 22
-5 0 -10 -3 -10 -7z"/>
<path d="M9186 5157 c-5 -15 -6 -31 -2 -34 11 -11 18 5 14 34 l-4 28 -8 -28z"/>
<path d="M13470 5146 c0 -14 5 -26 10 -26 6 0 10 9 10 19 0 11 -4 23 -10 26
-6 4 -10 -5 -10 -19z"/>
<path d="M9602 5120 c0 -14 2 -19 5 -12 2 6 2 18 0 25 -3 6 -5 1 -5 -13z"/>
<path d="M13060 5121 c0 -11 5 -23 10 -26 6 -3 10 3 10 14 0 11 -4 23 -10 26
-5 3 -10 -3 -10 -14z"/>
<path d="M12370 4894 c0 -141 3 -213 10 -209 6 4 10 87 10 216 0 133 -4 209
-10 209 -6 0 -10 -79 -10 -216z"/>
<path d="M9155 5090 c-3 -5 -1 -10 4 -10 6 0 11 5 11 10 0 6 -2 10 -4 10 -3 0
-8 -4 -11 -10z"/>
<path d="M13090 5066 c0 -22 3 -27 11 -19 8 8 8 16 0 30 -9 16 -10 14 -11 -11z"/>
<path d="M13500 5084 c0 -10 28 -34 41 -34 7 0 4 9 -9 20 -21 20 -32 25 -32
14z"/>
<path d="M9130 5060 c0 -5 5 -10 10 -10 6 0 10 5 10 10 0 6 -4 10 -10 10 -5 0
-10 -4 -10 -10z"/>
<path d="M9101 5041 c-8 -6 -9 -11 -3 -15 6 -3 14 -1 17 5 9 14 2 20 -14 10z"/>
<path d="M13555 5030 c3 -5 8 -10 11 -10 2 0 4 5 4 10 0 6 -5 10 -11 10 -5 0
-7 -4 -4 -10z"/>
<path d="M9541 4878 c2 -174 7 -163 11 25 2 70 0 127 -4 127 -5 0 -7 -69 -7
-152z"/>
<path d="M9070 5009 c0 -5 5 -7 10 -4 6 3 10 8 10 11 0 2 -4 4 -10 4 -5 0 -10
-5 -10 -11z"/>
<path d="M13124 4860 c0 -91 2 -128 3 -82 2 45 2 119 0 165 -1 45 -3 8 -3 -83z"/>
<path d="M9045 4990 c-3 -5 -1 -10 4 -10 6 0 11 5 11 10 0 6 -2 10 -4 10 -3 0
-8 -4 -11 -10z"/>
<path d="M13610 4990 c0 -5 7 -10 15 -10 8 0 15 -4 15 -10 0 -5 5 -10 12 -10
6 0 3 9 -7 20 -20 22 -35 26 -35 10z"/>
<path d="M9010 4970 c-13 -8 -12 -10 3 -10 9 0 17 5 17 10 0 12 -1 12 -20 0z"/>
<path d="M13678 4943 c7 -3 16 -2 19 1 4 3 -2 6 -13 5 -11 0 -14 -3 -6 -6z"/>
<path d="M8935 4920 c-3 -5 1 -10 9 -10 9 0 16 5 16 10 0 6 -4 10 -9 10 -6 0
-13 -4 -16 -10z"/>
<path d="M13720 4920 c0 -5 5 -10 11 -10 5 0 7 5 4 10 -3 6 -8 10 -11 10 -2 0
-4 -4 -4 -10z"/>
<path d="M8905 4890 c3 -5 -1 -10 -9 -10 -9 0 -16 -4 -16 -10 0 -16 15 -12 35
10 17 19 17 20 1 20 -9 0 -14 -4 -11 -10z"/>
<path d="M13759 4879 c12 -12 25 -19 28 -15 7 7 -23 36 -38 36 -7 0 -3 -9 10
-21z"/>
<path d="M8856 4835 c-3 -8 -1 -15 4 -15 6 0 10 7 10 15 0 8 -2 15 -4 15 -2 0
-6 -7 -10 -15z"/>
<path d="M11327 4805 c-5 -36 -15 -56 -35 -73 -35 -32 -106 -62 -143 -62 -16
0 -29 -4 -29 -10 0 -5 18 -10 39 -10 22 0 43 5 46 10 3 6 15 10 25 10 10 0 26
7 34 16 27 27 36 6 37 -89 l2 -92 8 70 c16 125 25 138 82 110 16 -8 38 -15 48
-15 10 0 21 -4 24 -10 3 -5 27 -10 53 -10 59 0 45 11 -42 34 -88 22 -122 53
-134 121 l-8 50 -7 -50z"/>
<path d="M13800 4833 c1 -5 12 -21 25 -38 19 -23 25 -26 25 -12 0 10 -7 20
-15 23 -8 4 -15 12 -15 20 0 8 -4 14 -10 14 -5 0 -10 -3 -10 -7z"/>
<path d="M8823 4793 c-4 -10 -13 -22 -20 -26 -7 -5 -11 -13 -7 -19 6 -10 54
37 54 54 0 15 -21 8 -27 -9z"/>
<path d="M8758 4720 c-20 -19 -23 -30 -8 -30 9 0 35 39 28 45 -2 1 -11 -5 -20
-15z"/>
<path d="M13880 4731 c0 -6 5 -13 10 -16 6 -3 10 1 10 9 0 9 -4 16 -10 16 -5
0 -10 -4 -10 -9z"/>
<path d="M8911 4685 c-2 -23 -29 -59 -51 -68 -9 -3 -4 -6 11 -6 30 -1 38 -16
40 -69 1 -22 5 -8 10 34 4 39 4 84 -1 100 -6 21 -9 24 -9 9z"/>
<path d="M8722 4670 c0 -14 2 -19 5 -12 2 6 2 18 0 25 -3 6 -5 1 -5 -13z"/>
<path d="M13940 4659 c0 -11 4 -18 10 -14 5 3 7 12 3 20 -7 21 -13 19 -13 -6z"/>
<path d="M9517 4657 c-11 -29 -9 -53 4 -40 6 6 9 21 7 34 -3 21 -4 22 -11 6z"/>
<path d="M13741 4627 c4 -23 8 -62 9 -86 0 -51 11 -50 12 0 1 46 14 69 40 69
20 0 20 1 -3 19 -13 10 -33 23 -45 29 -20 11 -21 10 -13 -31z"/>
<path d="M11055 4640 c-3 -6 5 -10 19 -10 14 0 28 5 31 10 3 6 -5 10 -19 10
-14 0 -28 -4 -31 -10z"/>
<path d="M8678 4615 c-20 -27 -22 -35 -8 -35 6 0 10 6 10 14 0 8 5 16 12 18 6
2 9 9 7 15 -2 6 -12 1 -21 -12z"/>
<path d="M13966 4621 c-4 -5 -2 -12 3 -15 5 -4 12 -2 15 3 4 5 2 12 -3 15 -5
4 -12 2 -15 -3z"/>
<path d="M8820 4590 c0 -5 4 -10 9 -10 6 0 13 5 16 10 3 6 -1 10 -9 10 -9 0
-16 -4 -16 -10z"/>
<path d="M9488 4594 c-5 -4 -8 -16 -8 -28 0 -14 3 -17 11 -9 6 6 9 19 7 28 -1
9 -6 13 -10 9z"/>
<path d="M13170 4581 c0 -11 5 -23 10 -26 6 -3 10 3 10 14 0 11 -4 23 -10 26
-5 3 -10 -3 -10 -14z"/>
<path d="M13840 4580 c33 -26 50 -26 22 0 -12 11 -27 20 -34 20 -7 0 -2 -9 12
-20z"/>
<path d="M13995 4590 c3 -5 8 -10 11 -10 2 0 4 5 4 10 0 6 -5 10 -11 10 -5 0
-7 -4 -4 -10z"/>
<path d="M8795 4570 c-3 -5 -1 -10 4 -10 6 0 11 5 11 10 0 6 -2 10 -4 10 -3 0
-8 -4 -11 -10z"/>
<path d="M8641 4554 c0 -11 3 -14 6 -6 3 7 2 16 -1 19 -3 4 -6 -2 -5 -13z"/>
<path d="M8748 4543 c7 -3 16 -2 19 1 4 3 -2 6 -13 5 -11 0 -14 -3 -6 -6z"/>
<path d="M13898 4543 c6 -2 18 -2 25 0 6 3 1 5 -13 5 -14 0 -19 -2 -12 -5z"/>
<path d="M9462 4520 c0 -14 2 -19 5 -12 2 6 2 18 0 25 -3 6 -5 1 -5 -13z"/>
<path d="M13202 4510 c0 -14 2 -19 5 -12 2 6 2 18 0 25 -3 6 -5 1 -5 -13z"/>
<path d="M9425 4460 c-3 -11 -11 -20 -16 -20 -5 0 -9 -7 -9 -15 0 -8 5 -15 10
-15 6 0 10 7 10 15 0 8 4 15 9 15 5 0 11 9 14 20 3 11 1 20 -3 20 -5 0 -12 -9
-15 -20z"/>
<path d="M13227 4460 c3 -11 9 -20 14 -20 11 0 11 3 3 24 -9 23 -23 20 -17 -4z"/>
<path d="M8888 4454 c-5 -4 -7 -64 -7 -133 1 -123 2 -124 11 -56 10 78 7 201
-4 189z"/>
<path d="M13777 4308 c3 -73 7 -135 9 -137 2 -2 4 57 4 132 0 78 -4 137 -9
137 -6 0 -7 -54 -4 -132z"/>
<path d="M11278 4380 c-12 -83 -8 -473 3 -433 5 18 8 135 7 260 -2 153 -5 210
-10 173z"/>
<path d="M13256 4415 c4 -8 8 -15 10 -15 2 0 4 7 4 15 0 8 -4 15 -10 15 -5 0
-7 -7 -4 -15z"/>
<path d="M9382 4360 c0 -19 2 -27 5 -17 2 9 2 25 0 35 -3 9 -5 1 -5 -18z"/>
<path d="M13280 4346 c0 -14 5 -26 10 -26 6 0 10 9 10 19 0 11 -4 23 -10 26
-6 4 -10 -5 -10 -19z"/>
<path d="M11382 4208 c-1 -67 3 -150 7 -183 7 -47 9 -24 10 110 0 94 -3 176
-8 183 -5 8 -9 -38 -9 -110z"/>
<path d="M9242 4270 c0 -14 2 -19 5 -12 2 6 2 18 0 25 -3 6 -5 1 -5 -13z"/>
<path d="M9133 4220 c0 -30 2 -43 4 -27 2 15 2 39 0 55 -2 15 -4 2 -4 -28z"/>
<path d="M10311 4133 c-1 -83 3 -133 9 -133 12 0 13 167 1 225 -7 30 -9 5 -10
-92z"/>
<path d="M13531 4175 c0 -42 2 -55 9 -44 6 10 6 34 1 60 l-9 44 -1 -60z"/>
<path d="M12346 4168 c-9 -78 -7 -146 4 -153 6 -4 10 32 10 99 0 58 -2 106 -4
106 -2 0 -6 -24 -10 -52z"/>
<path d="M9320 4183 c0 -22 2 -25 10 -13 13 20 13 40 0 40 -5 0 -10 -12 -10
-27z"/>
<path d="M13342 4180 c0 -14 2 -19 5 -12 2 6 2 18 0 25 -3 6 -5 1 -5 -13z"/>
<path d="M9280 4134 c-24 -13 -24 -14 -4 -14 12 0 24 7 28 15 3 8 4 15 3 14
-1 -1 -13 -7 -27 -15z"/>
<path d="M13782 4118 c-1 -20 -5 -45 -8 -55 -5 -14 -4 -15 5 -7 7 7 11 29 8
55 -3 42 -4 42 -5 7z"/>
<path d="M9100 4109 c0 -11 4 -18 10 -14 5 3 7 12 3 20 -7 21 -13 19 -13 -6z"/>
<path d="M9210 4093 c0 -37 0 -37 16 -15 16 23 13 52 -6 52 -5 0 -10 -17 -10
-37z"/>
<path d="M8880 4070 c0 -11 7 -20 15 -20 13 0 14 4 5 20 -6 11 -13 20 -15 20
-3 0 -5 -9 -5 -20z"/>
<path d="M8957 4053 c-11 -10 -8 -28 8 -49 13 -18 14 -17 15 19 0 35 -8 46
-23 30z"/>
<path d="M9180 4035 c0 -8 5 -15 10 -15 6 0 10 7 10 15 0 8 -4 15 -10 15 -5 0
-10 -7 -10 -15z"/>
<path d="M13690 4025 c0 -30 11 -32 27 -6 10 16 9 20 -3 25 -23 9 -24 8 -24
-19z"/>
<path d="M13560 4007 c0 -9 -8 -17 -17 -18 -10 -1 -2 -5 17 -9 44 -11 50 -5
22 23 -19 18 -22 19 -22 4z"/>
<path d="M9076 3995 c-4 -12 3 -15 32 -14 20 1 29 3 20 6 -10 2 -18 9 -18 14
0 15 -27 10 -34 -6z"/>
<path d="M12322 3915 c1 -72 1 -75 8 -30 3 27 3 63 -1 80 -5 20 -7 3 -7 -50z"/>
<path d="M10343 3905 c0 -44 2 -61 4 -37 2 23 2 59 0 80 -2 20 -4 1 -4 -43z"/>
<path d="M11253 3810 c0 -30 2 -43 4 -27 2 15 2 39 0 55 -2 15 -4 2 -4 -28z"/>
<path d="M11411 3793 c-1 -43 3 -73 9 -73 12 0 12 97 0 125 -6 14 -9 -3 -9
-52z"/>
<path d="M12293 3720 c0 -36 2 -50 4 -32 2 17 2 47 0 65 -2 17 -4 3 -4 -33z"/>
<path d="M10373 3700 c0 -36 2 -50 4 -32 2 17 2 47 0 65 -2 17 -4 3 -4 -33z"/>
<path d="M11218 3618 c-2 -29 -1 -71 3 -93 5 -29 7 -13 8 53 1 100 -5 123 -11
40z"/>
<path d="M12268 3624 c-5 -4 -8 -35 -8 -68 1 -46 3 -57 11 -43 11 19 8 123 -3
111z"/>
<path d="M10390 3573 c0 -27 5 -55 10 -63 7 -11 10 3 10 48 0 35 -4 62 -10 62
-5 0 -10 -21 -10 -47z"/>
<path d="M12234 3456 c-3 -19 -1 -48 4 -63 9 -24 11 -20 11 35 1 69 -5 80 -15
28z"/>
<path d="M11474 3240 c0 -129 2 -182 3 -117 2 64 2 170 0 235 -1 64 -3 11 -3
-118z"/>
<path d="M10420 3415 c0 -27 3 -46 6 -42 3 3 6 22 6 42 0 20 -3 39 -6 42 -3 4
-6 -15 -6 -42z"/>
<path d="M10452 3225 c0 -62 1 -66 10 -38 7 21 7 44 0 70 -9 36 -10 34 -10
-32z"/>
<path d="M12213 3225 c0 -38 2 -53 4 -32 2 20 2 52 0 70 -2 17 -4 1 -4 -38z"/>
<path d="M10476 3131 c-9 -14 -4 -171 6 -177 4 -3 8 38 8 90 0 92 -2 106 -14
87z"/>
<path d="M12180 3046 c0 -57 4 -96 10 -96 6 0 10 36 10 89 0 50 -4 93 -10 96
-6 4 -10 -28 -10 -89z"/>
<path d="M10592 2980 c0 -14 2 -19 5 -12 2 6 2 18 0 25 -3 6 -5 1 -5 -13z"/>
<path d="M11167 2957 c-11 -29 -9 -53 4 -40 6 6 9 21 7 34 -3 21 -4 22 -11 6z"/>
<path d="M11490 2936 c0 -14 5 -28 10 -31 6 -4 10 7 10 24 0 17 -4 31 -10 31
-5 0 -10 -11 -10 -24z"/>
<path d="M12051 2944 c0 -11 3 -14 6 -6 3 7 2 16 -1 19 -3 4 -6 -2 -5 -13z"/>
<path d="M10593 2895 c0 -27 2 -38 4 -22 2 15 2 37 0 50 -2 12 -4 0 -4 -28z"/>
<path d="M10452 2795 c1 -95 2 -110 8 -70 11 67 11 145 0 170 -5 13 -8 -25 -8
-100z"/>
<path d="M11135 2869 c-4 -12 -2 -26 4 -32 8 -8 11 -2 11 21 0 37 -6 41 -15
11z"/>
<path d="M11520 2866 c0 -14 5 -26 10 -26 6 0 10 9 10 19 0 11 -4 23 -10 26
-6 4 -10 -5 -10 -19z"/>
<path d="M12214 2770 c0 -63 1 -89 3 -57 2 31 2 83 0 115 -2 31 -3 5 -3 -58z"/>
<path d="M11690 2833 c0 -18 4 -33 9 -33 17 0 18 14 5 40 l-14 25 0 -32z"/>
<path d="M10943 2822 c-8 -5 -9 -13 -3 -22 11 -17 23 -8 18 14 -2 9 -8 12 -15
8z"/>
<path d="M11114 2650 c0 -96 2 -136 3 -87 2 48 2 126 0 175 -1 48 -3 8 -3 -88z"/>
<path d="M11554 2675 c0 -71 1 -99 3 -62 2 37 2 96 0 130 -2 34 -3 4 -3 -68z"/>
<path d="M11133 2265 c0 -97 4 -178 9 -181 4 -3 8 76 8 175 0 100 -4 181 -9
181 -4 0 -8 -79 -8 -175z"/>
<path d="M11520 2251 c0 -94 4 -172 9 -175 5 -3 9 69 8 169 0 96 -4 175 -9
175 -4 0 -8 -76 -8 -169z"/>
<path d="M12214 2130 c0 -69 1 -97 3 -62 2 34 2 90 0 125 -2 34 -3 6 -3 -63z"/>
<path d="M10452 2100 c0 -96 2 -120 10 -103 8 16 8 54 1 125 l-10 103 -1 -125z"/>
<path d="M11113 2005 c0 -33 2 -45 4 -27 2 18 2 45 0 60 -2 15 -4 0 -4 -33z"/>
<path d="M11553 1965 c0 -33 2 -45 4 -27 2 18 2 45 0 60 -2 15 -4 0 -4 -33z"/>
<path d="M10474 1956 c-3 -7 -1 -46 4 -87 l9 -74 2 88 c1 83 -3 104 -15 73z"/>
<path d="M11081 1835 c1 -43 2 -46 10 -24 6 16 6 35 0 50 -8 20 -10 16 -10
-26z"/>
<path d="M11577 1873 c-10 -10 -8 -56 3 -73 7 -11 10 -2 10 33 0 48 -1 52 -13
40z"/>
<path d="M11058 1774 c-5 -4 -8 -21 -8 -38 0 -21 3 -27 11 -19 6 6 9 23 7 38
-2 15 -6 23 -10 19z"/>
<path d="M12158 1774 c-5 -4 -8 -26 -8 -48 1 -33 3 -38 11 -23 11 19 8 83 -3
71z"/>
<path d="M10512 1665 c0 -16 2 -22 5 -12 2 9 2 23 0 30 -3 6 -5 -1 -5 -18z"/>
<path d="M11027 1670 c-3 -11 -1 -33 3 -48 7 -23 8 -21 9 21 1 50 -3 60 -12
27z"/>
<path d="M11630 1631 c0 -17 5 -31 10 -31 6 0 10 11 10 24 0 14 -4 28 -10 31
-6 4 -10 -7 -10 -24z"/>
<path d="M10530 1563 c0 -28 5 -55 10 -58 13 -8 13 75 0 95 -7 11 -10 0 -10
-37z"/>
<path d="M12126 1578 c-9 -36 -7 -78 4 -78 6 0 10 23 10 50 0 54 -4 63 -14 28z"/>
<path d="M11661 1291 c0 -151 2 -271 6 -267 10 10 14 433 4 491 -6 34 -9 -36
-10 -224z"/>
<path d="M10999 1287 c-6 -218 -2 -318 12 -292 3 6 3 127 0 270 l-6 260 -6
-238z"/>
<path d="M10560 1430 c0 -35 3 -61 6 -57 7 7 7 107 0 115 -3 3 -6 -23 -6 -58z"/>
<path d="M12073 1280 c0 -30 2 -43 4 -27 2 15 2 39 0 55 -2 15 -4 2 -4 -28z"/>
<path d="M10593 1255 c0 -33 2 -45 4 -27 2 18 2 45 0 60 -2 15 -4 0 -4 -33z"/>
<path d="M10612 1102 c3 -45 10 -88 16 -94 7 -7 12 -41 12 -76 0 -58 -2 -65
-32 -93 -18 -16 -42 -29 -53 -29 -11 -1 -31 -7 -45 -15 -14 -8 -33 -14 -44
-15 -10 0 -31 -11 -47 -24 -15 -13 -33 -26 -38 -28 -6 -1 -13 -21 -16 -43 -5
-31 -3 -45 12 -61 10 -12 38 -46 63 -75 60 -71 146 -157 194 -194 21 -17 44
-34 50 -40 18 -16 73 -45 85 -45 6 0 11 5 11 10 0 6 -4 10 -10 10 -22 0 -150
101 -236 187 -52 51 -94 97 -94 101 0 4 -12 18 -25 31 -46 43 -47 104 -3 109
16 2 28 11 31 23 4 14 14 19 40 19 20 0 37 -6 40 -12 4 -10 7 -10 18 0 11 10
10 12 -4 12 -9 0 -17 4 -17 8 0 16 13 21 30 12 13 -7 21 -5 30 5 15 18 57 20
62 3 10 -29 16 171 7 212 -6 25 -13 72 -16 105 -8 96 -26 94 -21 -3z"/>
<path d="M12048 1130 c-12 -40 -10 -106 3 -93 5 5 9 34 7 64 -2 42 -5 48 -10
29z"/>
<path d="M12018 980 c-11 -35 -10 -79 2 -122 13 -47 70 -86 103 -71 21 10 21
11 -9 17 -53 12 -78 51 -84 131 -4 52 -7 63 -12 45z"/>
<path d="M11630 925 c0 -37 4 -65 10 -65 6 0 10 28 10 65 0 37 -4 65 -10 65
-6 0 -10 -28 -10 -65z"/>
<path d="M10923 940 c0 -25 2 -35 4 -22 2 12 2 32 0 45 -2 12 -4 2 -4 -23z"/>
<path d="M11027 963 c-11 -10 -8 -81 3 -88 6 -4 10 13 10 44 0 52 -1 56 -13
44z"/>
<path d="M10750 851 c0 -23 5 -41 10 -41 6 0 10 15 10 34 0 19 -4 38 -10 41
-6 4 -10 -10 -10 -34z"/>
<path d="M11661 730 c0 -65 4 -106 8 -95 12 29 13 159 2 186 -7 17 -10 -9 -10
-91z"/>
<path d="M10917 768 c-3 -12 -2 -29 3 -37 7 -12 9 -6 10 22 0 42 -5 48 -13 15z"/>
<path d="M12150 776 c0 -18 54 -23 65 -6 3 6 -3 10 -14 10 -10 0 -26 3 -35 6
-11 4 -16 1 -16 -10z"/>
<path d="M12232 743 c2 -10 14 -20 28 -22 25 -3 25 -3 6 18 -23 26 -39 27 -34
4z"/>
<path d="M12293 675 c0 -22 2 -30 4 -17 2 12 2 30 0 40 -3 9 -5 -1 -4 -23z"/>
<path d="M12260 610 c0 -5 5 -10 10 -10 6 0 10 5 10 10 0 6 -4 10 -10 10 -5 0
-10 -4 -10 -10z"/>
<path d="M11027 593 c-9 -15 -6 -223 4 -223 5 0 9 50 9 115 0 108 -2 126 -13
108z"/>
<path d="M11630 563 c0 -28 3 -34 10 -23 13 20 13 47 0 55 -6 4 -10 -9 -10
-32z"/>
<path d="M12235 591 c-3 -5 -1 -12 5 -16 5 -3 10 1 10 9 0 18 -6 21 -15 7z"/>
<path d="M12192 533 c-13 -11 -19 -24 -14 -27 9 -6 45 31 40 42 -2 4 -13 -3
-26 -15z"/>
<path d="M11631 433 c0 -43 3 -73 9 -73 12 0 12 36 1 100 -8 43 -9 41 -10 -27z"/>
<path d="M12150 490 c0 -5 5 -10 10 -10 6 0 10 5 10 10 0 6 -4 10 -10 10 -5 0
-10 -4 -10 -10z"/>
<path d="M12035 380 c-3 -5 1 -10 9 -10 9 0 16 5 16 10 0 6 -4 10 -9 10 -6 0
-13 -4 -16 -10z"/>
<path d="M11660 321 c0 -12 5 -21 10 -21 6 0 10 6 10 14 0 8 -4 18 -10 21 -5
3 -10 -3 -10 -14z"/>
<path d="M11975 329 c-4 -6 -17 -14 -29 -19 l-21 -9 23 0 c12 -1 22 4 22 9 0
6 7 10 15 10 8 0 15 5 15 10 0 13 -17 13 -25 -1z"/>
<path d="M11898 283 c6 -2 18 -2 25 0 6 3 1 5 -13 5 -14 0 -19 -2 -12 -5z"/>
<path d="M11857 9404 c-4 -4 -7 -18 -7 -31 0 -23 1 -23 25 -7 14 9 24 22 22
28 -4 13 -30 20 -40 10z"/>
<path d="M11906 9352 c-3 -5 -1 -30 3 -58 l9 -49 1 58 c1 55 -2 66 -13 49z"/>
<path d="M11877 9223 c-10 -9 -9 -23 2 -23 5 0 11 7 15 15 5 15 -5 20 -17 8z"/>
<path d="M11820 9140 c0 -5 5 -10 11 -10 5 0 7 5 4 10 -3 6 -8 10 -11 10 -2 0
-4 -4 -4 -10z"/>
<path d="M10703 9310 c0 -25 2 -35 4 -22 2 12 2 32 0 45 -2 12 -4 2 -4 -23z"/>
<path d="M10726 9212 c-2 -4 -1 -14 5 -22 7 -12 9 -10 9 8 0 23 -5 28 -14 14z"/>
<path d="M10750 9160 c0 -5 5 -10 10 -10 6 0 10 5 10 10 0 6 -4 10 -10 10 -5
0 -10 -4 -10 -10z"/>
</g>
</svg>
